<?xml version="1.0" encoding="utf-8" standalone="no"?>
<!DOCTYPE svg PUBLIC "-//W3C//DTD SVG 1.1//EN"
  "http://www.w3.org/Graphics/SVG/1.1/DTD/svg11.dtd">
<!-- Created with matplotlib (https://matplotlib.org/) -->
<svg height="288pt" version="1.1" viewBox="0 0 432 288" width="432pt" xmlns="http://www.w3.org/2000/svg" xmlns:xlink="http://www.w3.org/1999/xlink">
 <metadata>
  <rdf:RDF xmlns:cc="http://creativecommons.org/ns#" xmlns:dc="http://purl.org/dc/elements/1.1/" xmlns:rdf="http://www.w3.org/1999/02/22-rdf-syntax-ns#">
   <cc:Work>
    <dc:type rdf:resource="http://purl.org/dc/dcmitype/StillImage"/>
    <dc:date>2021-05-31T00:05:22.114075</dc:date>
    <dc:format>image/svg+xml</dc:format>
    <dc:creator>
     <cc:Agent>
      <dc:title>Matplotlib v3.3.1, https://matplotlib.org/</dc:title>
     </cc:Agent>
    </dc:creator>
   </cc:Work>
  </rdf:RDF>
 </metadata>
 <defs>
  <style type="text/css">*{stroke-linecap:butt;stroke-linejoin:round;}</style>
 </defs>
 <g id="figure_1">
  <g id="patch_1">
   <path d="M 0 288 
L 432 288 
L 432 0 
L 0 0 
z
" style="fill:none;"/>
  </g>
  <g id="axes_1">
   <g id="patch_2">
    <path d="M 54 252 
L 388.8 252 
L 388.8 34.56 
L 54 34.56 
z
" style="fill:#ffffff;"/>
   </g>
   <g id="PolyCollection_1">
    <path clip-path="url(#p2312a8a5be)" d="M 69.218182 65.003147 
L 69.218182 87.10578 
L 70.747647 86.448699 
L 72.277113 84.843918 
L 73.806578 83.083058 
L 75.336044 84.243656 
L 76.865509 84.077505 
L 78.394974 84.935518 
L 79.92444 85.518615 
L 81.453906 84.338418 
L 82.983371 83.315112 
L 84.512837 83.117948 
L 86.042302 83.432103 
L 87.571767 80.180142 
L 89.101233 81.354716 
L 90.630698 79.412123 
L 92.160164 79.073245 
L 93.68963 78.140732 
L 95.219095 78.328536 
L 96.748561 75.762754 
L 98.278027 74.941385 
L 99.807492 74.628722 
L 101.336958 72.02759 
L 102.866421 71.57788 
L 104.395889 69.878783 
L 105.925353 69.433817 
L 107.454816 69.376653 
L 108.984284 66.856726 
L 110.513747 65.856309 
L 112.043215 64.564488 
L 113.572678 64.853886 
L 115.102146 65.935187 
L 116.63161 65.65799 
L 118.161078 63.11904 
L 119.690541 64.869781 
L 121.220009 65.201582 
L 122.749472 64.923121 
L 124.27894 63.556569 
L 125.808403 67.102198 
L 127.337871 65.563828 
L 128.867335 66.503053 
L 130.396803 66.277647 
L 131.926266 65.187067 
L 133.455734 64.760207 
L 134.985197 64.165407 
L 136.514665 66.80301 
L 138.044129 66.748535 
L 139.573596 67.091826 
L 141.10306 64.954591 
L 142.632523 65.034545 
L 144.161987 64.162075 
L 145.69145 64.714431 
L 147.220922 64.829034 
L 148.750386 64.599623 
L 150.279849 64.218223 
L 151.809312 63.797018 
L 153.338785 62.633408 
L 154.868248 62.041398 
L 156.397712 61.830047 
L 157.927175 62.191277 
L 159.456647 61.74692 
L 160.986111 62.325778 
L 162.515574 61.282767 
L 164.045038 61.713478 
L 165.57451 60.976619 
L 167.103973 61.735598 
L 168.633437 62.063069 
L 170.1629 60.517652 
L 171.692373 62.312929 
L 173.221836 62.81064 
L 174.751299 63.491902 
L 176.280763 64.129825 
L 177.810235 65.514698 
L 179.339698 67.500522 
L 180.869162 67.950102 
L 182.398625 69.10839 
L 183.928098 71.455096 
L 185.457561 74.485188 
L 186.987024 74.913537 
L 188.516488 78.490207 
L 190.04596 82.746333 
L 191.575424 83.922788 
L 193.104887 86.325022 
L 194.63435 86.85284 
L 196.163823 88.570135 
L 197.693286 91.277713 
L 199.222749 91.723204 
L 200.752213 91.143195 
L 202.281685 90.805093 
L 203.811149 90.786871 
L 205.340612 91.225596 
L 206.870075 90.445724 
L 208.399548 91.670235 
L 209.929011 91.00544 
L 211.458475 87.924297 
L 212.987938 85.50119 
L 214.51741 87.95146 
L 216.046865 83.545394 
L 217.576328 84.288352 
L 219.105791 81.809475 
L 220.635264 81.328882 
L 222.164718 80.609632 
L 223.694191 79.424621 
L 225.223663 79.445998 
L 226.753117 76.886506 
L 228.28259 76.474586 
L 229.812062 77.267208 
L 231.341516 75.541214 
L 232.870989 74.266633 
L 234.400443 74.494865 
L 235.929916 74.78399 
L 237.459388 75.472391 
L 238.988842 76.592906 
L 240.518315 77.740114 
L 242.047787 78.818948 
L 243.577241 80.79806 
L 245.106714 82.589061 
L 246.636168 85.584988 
L 248.165641 87.671111 
L 249.695113 93.773967 
L 251.224567 97.267721 
L 252.75404 103.810752 
L 254.283512 110.298648 
L 255.812967 118.379549 
L 257.342439 125.960592 
L 258.871893 136.23055 
L 260.401366 145.64864 
L 261.930838 152.677361 
L 263.460292 162.287143 
L 264.989765 174.218748 
L 266.519237 181.155515 
L 268.048692 192.088455 
L 269.578164 200.135099 
L 271.107618 208.76546 
L 272.637091 214.941742 
L 274.166563 222.69062 
L 275.696018 227.125075 
L 277.22549 235.365142 
L 278.754962 240.35442 
L 280.284417 238.712234 
L 281.813889 240.726451 
L 283.343343 242.116364 
L 284.872816 239.109506 
L 286.402288 239.59185 
L 287.931743 235.666139 
L 289.461215 233.369039 
L 290.990688 226.941928 
L 292.520142 224.201245 
L 294.049614 219.680982 
L 295.579069 215.647438 
L 297.108541 210.811841 
L 298.638013 204.531338 
L 300.167468 199.944552 
L 301.69694 196.446737 
L 303.226413 191.35178 
L 304.755867 183.297776 
L 306.285339 179.151929 
L 307.814794 176.895212 
L 309.344266 172.592699 
L 310.873738 168.273273 
L 312.403193 163.771914 
L 313.932665 160.466567 
L 315.462138 158.280639 
L 316.991592 153.818463 
L 318.521064 155.253202 
L 320.050519 153.13918 
L 321.579991 149.090957 
L 323.109464 148.226225 
L 324.638918 144.005486 
L 326.16839 141.713538 
L 327.697863 144.219134 
L 329.227317 143.074571 
L 330.756789 143.618736 
L 332.286244 141.943241 
L 333.815716 136.692068 
L 335.345189 134.794584 
L 336.874643 132.199391 
L 338.404115 132.302474 
L 339.933588 132.870033 
L 341.463042 129.650856 
L 342.992515 130.131769 
L 344.521969 124.33147 
L 346.051441 124.102837 
L 347.580914 123.954069 
L 349.110368 119.312011 
L 350.63984 118.887386 
L 352.169313 116.817652 
L 353.698767 116.347444 
L 355.22824 110.519369 
L 356.757694 110.729719 
L 358.287166 108.719687 
L 359.816639 107.127533 
L 361.346093 104.136615 
L 362.875566 103.048223 
L 364.40502 99.84827 
L 365.934492 103.045443 
L 367.463965 98.985786 
L 368.993419 97.417524 
L 370.522891 95.326685 
L 372.052346 92.807105 
L 373.581818 92.144647 
L 373.581818 69.239787 
L 373.581818 69.239787 
L 372.052346 71.086977 
L 370.522891 71.517241 
L 368.993419 75.124824 
L 367.463965 75.6335 
L 365.934492 78.70223 
L 364.40502 81.271872 
L 362.875566 84.293572 
L 361.346093 88.084881 
L 359.816639 88.499754 
L 358.287166 90.601728 
L 356.757694 92.856892 
L 355.22824 94.349458 
L 353.698767 97.137448 
L 352.169313 96.941633 
L 350.63984 98.758168 
L 349.110368 99.143214 
L 347.580914 100.77757 
L 346.051441 103.770792 
L 344.521969 103.617554 
L 342.992515 104.736809 
L 341.463042 105.032804 
L 339.933588 106.334366 
L 338.404115 107.122034 
L 336.874643 109.715708 
L 335.345189 110.070553 
L 333.815716 111.784468 
L 332.286244 113.775229 
L 330.756789 114.040838 
L 329.227317 118.222781 
L 327.697863 120.460043 
L 326.16839 121.84092 
L 324.638918 124.48633 
L 323.109464 126.213233 
L 321.579991 131.02378 
L 320.050519 132.828969 
L 318.521064 138.525237 
L 316.991592 141.690996 
L 315.462138 145.346307 
L 313.932665 149.436453 
L 312.403193 152.39843 
L 310.873738 154.027505 
L 309.344266 158.8406 
L 307.814794 160.961655 
L 306.285339 164.005883 
L 304.755867 169.502091 
L 303.226413 173.649751 
L 301.69694 175.276182 
L 300.167468 183.952227 
L 298.638013 187.404998 
L 297.108541 189.899419 
L 295.579069 193.449093 
L 294.049614 199.652728 
L 292.520142 200.929043 
L 290.990688 200.862016 
L 289.461215 207.221908 
L 287.931743 210.269175 
L 286.402288 211.922578 
L 284.872816 212.301178 
L 283.343343 212.355721 
L 281.813889 212.285613 
L 280.284417 207.313876 
L 278.754962 204.823857 
L 277.22549 200.692008 
L 275.696018 197.348732 
L 274.166563 190.8017 
L 272.637091 185.404588 
L 271.107618 181.344399 
L 269.578164 170.995448 
L 268.048692 169.095375 
L 266.519237 157.36691 
L 264.989765 150.623784 
L 263.460292 142.077323 
L 261.930838 134.127479 
L 260.401366 125.112828 
L 258.871893 117.502229 
L 257.342439 110.166937 
L 255.812967 102.040365 
L 254.283512 97.628896 
L 252.75404 90.614362 
L 251.224567 86.16634 
L 249.695113 84.013734 
L 248.165641 77.94597 
L 246.636168 74.038627 
L 245.106714 70.901135 
L 243.577241 70.140194 
L 242.047787 67.686132 
L 240.518315 65.106377 
L 238.988842 63.553277 
L 237.459388 61.8777 
L 235.929916 60.881904 
L 234.400443 60.536068 
L 232.870989 60.629625 
L 231.341516 61.256303 
L 229.812062 62.058809 
L 228.28259 61.185552 
L 226.753117 63.85887 
L 225.223663 65.540389 
L 223.694191 66.91762 
L 222.164718 67.106075 
L 220.635264 69.797231 
L 219.105791 70.391625 
L 217.576328 72.629198 
L 216.046865 74.670144 
L 214.51741 75.897303 
L 212.987938 75.97798 
L 211.458475 76.87442 
L 209.929011 77.311738 
L 208.399548 76.720801 
L 206.870075 77.26223 
L 205.340612 75.772498 
L 203.811149 77.025024 
L 202.281685 75.524601 
L 200.752213 76.344184 
L 199.222749 73.812294 
L 197.693286 72.244979 
L 196.163823 72.018751 
L 194.63435 70.08408 
L 193.104887 70.003642 
L 191.575424 69.036136 
L 190.04596 67.249517 
L 188.516488 65.903783 
L 186.987024 64.110332 
L 185.457561 62.733731 
L 183.928098 62.069559 
L 182.398625 60.630606 
L 180.869162 58.76515 
L 179.339698 57.268345 
L 177.810235 56.565289 
L 176.280763 53.616311 
L 174.751299 51.703177 
L 173.221836 51.930219 
L 171.692373 50.072765 
L 170.1629 48.964966 
L 168.633437 48.343442 
L 167.103973 47.73434 
L 165.57451 46.449601 
L 164.045038 47.187292 
L 162.515574 45.914534 
L 160.986111 44.515909 
L 159.456647 46.883778 
L 157.927175 45.479611 
L 156.397712 45.186051 
L 154.868248 44.443636 
L 153.338785 46.617069 
L 151.809312 47.429718 
L 150.279849 46.82633 
L 148.750386 46.713099 
L 147.220922 48.611102 
L 145.69145 47.690996 
L 144.161987 49.785086 
L 142.632523 49.463608 
L 141.10306 50.230177 
L 139.573596 49.868393 
L 138.044129 50.550339 
L 136.514665 50.298153 
L 134.985197 51.92488 
L 133.455734 52.409742 
L 131.926266 52.555545 
L 130.396803 53.105339 
L 128.867335 54.779876 
L 127.337871 54.192116 
L 125.808403 55.185469 
L 124.27894 54.214235 
L 122.749472 55.034933 
L 121.220009 55.351078 
L 119.690541 55.517314 
L 118.161078 57.159493 
L 116.63161 56.736309 
L 115.102146 57.634887 
L 113.572678 58.568845 
L 112.043215 59.140683 
L 110.513747 58.335117 
L 108.984284 58.370512 
L 107.454816 58.712171 
L 105.925353 60.405244 
L 104.395889 62.65439 
L 102.866421 63.252359 
L 101.336958 62.437897 
L 99.807492 62.284294 
L 98.278027 64.545162 
L 96.748561 63.813145 
L 95.219095 63.808136 
L 93.68963 64.315847 
L 92.160164 63.300469 
L 90.630698 65.752661 
L 89.101233 66.316114 
L 87.571767 66.166972 
L 86.042302 67.462334 
L 84.512837 66.25382 
L 82.983371 67.426316 
L 81.453906 68.464134 
L 79.92444 67.25413 
L 78.394974 68.050568 
L 76.865509 67.506982 
L 75.336044 66.849778 
L 73.806578 67.907075 
L 72.277113 67.046189 
L 70.747647 66.370436 
L 69.218182 65.003147 
z
" style="fill:#1f77b4;fill-opacity:0.2;"/>
   </g>
   <g id="matplotlib.axis_1">
    <g id="xtick_1">
     <g id="line2d_1">
      <defs>
       <path d="M 0 0 
L 0 3.5 
" id="mda8adbffa1" style="stroke:#000000;stroke-width:0.8;"/>
      </defs>
      <g>
       <use style="stroke:#000000;stroke-width:0.8;" x="69.218182" xlink:href="#mda8adbffa1" y="252"/>
      </g>
     </g>
     <g id="text_1">
      <!-- 0.0 -->
      <g transform="translate(61.266619 266.598437)scale(0.1 -0.1)">
       <defs>
        <path d="M 31.78125 66.40625 
Q 24.171875 66.40625 20.328125 58.90625 
Q 16.5 51.421875 16.5 36.375 
Q 16.5 21.390625 20.328125 13.890625 
Q 24.171875 6.390625 31.78125 6.390625 
Q 39.453125 6.390625 43.28125 13.890625 
Q 47.125 21.390625 47.125 36.375 
Q 47.125 51.421875 43.28125 58.90625 
Q 39.453125 66.40625 31.78125 66.40625 
z
M 31.78125 74.21875 
Q 44.046875 74.21875 50.515625 64.515625 
Q 56.984375 54.828125 56.984375 36.375 
Q 56.984375 17.96875 50.515625 8.265625 
Q 44.046875 -1.421875 31.78125 -1.421875 
Q 19.53125 -1.421875 13.0625 8.265625 
Q 6.59375 17.96875 6.59375 36.375 
Q 6.59375 54.828125 13.0625 64.515625 
Q 19.53125 74.21875 31.78125 74.21875 
z
" id="DejaVuSans-48"/>
        <path d="M 10.6875 12.40625 
L 21 12.40625 
L 21 0 
L 10.6875 0 
z
" id="DejaVuSans-46"/>
       </defs>
       <use xlink:href="#DejaVuSans-48"/>
       <use x="63.623047" xlink:href="#DejaVuSans-46"/>
       <use x="95.410156" xlink:href="#DejaVuSans-48"/>
      </g>
     </g>
    </g>
    <g id="xtick_2">
     <g id="line2d_2">
      <g>
       <use style="stroke:#000000;stroke-width:0.8;" x="130.090909" xlink:href="#mda8adbffa1" y="252"/>
      </g>
     </g>
     <g id="text_2">
      <!-- 0.2 -->
      <g transform="translate(122.139347 266.598437)scale(0.1 -0.1)">
       <defs>
        <path d="M 19.1875 8.296875 
L 53.609375 8.296875 
L 53.609375 0 
L 7.328125 0 
L 7.328125 8.296875 
Q 12.9375 14.109375 22.625 23.890625 
Q 32.328125 33.6875 34.8125 36.53125 
Q 39.546875 41.84375 41.421875 45.53125 
Q 43.3125 49.21875 43.3125 52.78125 
Q 43.3125 58.59375 39.234375 62.25 
Q 35.15625 65.921875 28.609375 65.921875 
Q 23.96875 65.921875 18.8125 64.3125 
Q 13.671875 62.703125 7.8125 59.421875 
L 7.8125 69.390625 
Q 13.765625 71.78125 18.9375 73 
Q 24.125 74.21875 28.421875 74.21875 
Q 39.75 74.21875 46.484375 68.546875 
Q 53.21875 62.890625 53.21875 53.421875 
Q 53.21875 48.921875 51.53125 44.890625 
Q 49.859375 40.875 45.40625 35.40625 
Q 44.1875 33.984375 37.640625 27.21875 
Q 31.109375 20.453125 19.1875 8.296875 
z
" id="DejaVuSans-50"/>
       </defs>
       <use xlink:href="#DejaVuSans-48"/>
       <use x="63.623047" xlink:href="#DejaVuSans-46"/>
       <use x="95.410156" xlink:href="#DejaVuSans-50"/>
      </g>
     </g>
    </g>
    <g id="xtick_3">
     <g id="line2d_3">
      <g>
       <use style="stroke:#000000;stroke-width:0.8;" x="190.963636" xlink:href="#mda8adbffa1" y="252"/>
      </g>
     </g>
     <g id="text_3">
      <!-- 0.4 -->
      <g transform="translate(183.012074 266.598437)scale(0.1 -0.1)">
       <defs>
        <path d="M 37.796875 64.3125 
L 12.890625 25.390625 
L 37.796875 25.390625 
z
M 35.203125 72.90625 
L 47.609375 72.90625 
L 47.609375 25.390625 
L 58.015625 25.390625 
L 58.015625 17.1875 
L 47.609375 17.1875 
L 47.609375 0 
L 37.796875 0 
L 37.796875 17.1875 
L 4.890625 17.1875 
L 4.890625 26.703125 
z
" id="DejaVuSans-52"/>
       </defs>
       <use xlink:href="#DejaVuSans-48"/>
       <use x="63.623047" xlink:href="#DejaVuSans-46"/>
       <use x="95.410156" xlink:href="#DejaVuSans-52"/>
      </g>
     </g>
    </g>
    <g id="xtick_4">
     <g id="line2d_4">
      <g>
       <use style="stroke:#000000;stroke-width:0.8;" x="251.836364" xlink:href="#mda8adbffa1" y="252"/>
      </g>
     </g>
     <g id="text_4">
      <!-- 0.6 -->
      <g transform="translate(243.884801 266.598437)scale(0.1 -0.1)">
       <defs>
        <path d="M 33.015625 40.375 
Q 26.375 40.375 22.484375 35.828125 
Q 18.609375 31.296875 18.609375 23.390625 
Q 18.609375 15.53125 22.484375 10.953125 
Q 26.375 6.390625 33.015625 6.390625 
Q 39.65625 6.390625 43.53125 10.953125 
Q 47.40625 15.53125 47.40625 23.390625 
Q 47.40625 31.296875 43.53125 35.828125 
Q 39.65625 40.375 33.015625 40.375 
z
M 52.59375 71.296875 
L 52.59375 62.3125 
Q 48.875 64.0625 45.09375 64.984375 
Q 41.3125 65.921875 37.59375 65.921875 
Q 27.828125 65.921875 22.671875 59.328125 
Q 17.53125 52.734375 16.796875 39.40625 
Q 19.671875 43.65625 24.015625 45.921875 
Q 28.375 48.1875 33.59375 48.1875 
Q 44.578125 48.1875 50.953125 41.515625 
Q 57.328125 34.859375 57.328125 23.390625 
Q 57.328125 12.15625 50.6875 5.359375 
Q 44.046875 -1.421875 33.015625 -1.421875 
Q 20.359375 -1.421875 13.671875 8.265625 
Q 6.984375 17.96875 6.984375 36.375 
Q 6.984375 53.65625 15.1875 63.9375 
Q 23.390625 74.21875 37.203125 74.21875 
Q 40.921875 74.21875 44.703125 73.484375 
Q 48.484375 72.75 52.59375 71.296875 
z
" id="DejaVuSans-54"/>
       </defs>
       <use xlink:href="#DejaVuSans-48"/>
       <use x="63.623047" xlink:href="#DejaVuSans-46"/>
       <use x="95.410156" xlink:href="#DejaVuSans-54"/>
      </g>
     </g>
    </g>
    <g id="xtick_5">
     <g id="line2d_5">
      <g>
       <use style="stroke:#000000;stroke-width:0.8;" x="312.709091" xlink:href="#mda8adbffa1" y="252"/>
      </g>
     </g>
     <g id="text_5">
      <!-- 0.8 -->
      <g transform="translate(304.757528 266.598437)scale(0.1 -0.1)">
       <defs>
        <path d="M 31.78125 34.625 
Q 24.75 34.625 20.71875 30.859375 
Q 16.703125 27.09375 16.703125 20.515625 
Q 16.703125 13.921875 20.71875 10.15625 
Q 24.75 6.390625 31.78125 6.390625 
Q 38.8125 6.390625 42.859375 10.171875 
Q 46.921875 13.96875 46.921875 20.515625 
Q 46.921875 27.09375 42.890625 30.859375 
Q 38.875 34.625 31.78125 34.625 
z
M 21.921875 38.8125 
Q 15.578125 40.375 12.03125 44.71875 
Q 8.5 49.078125 8.5 55.328125 
Q 8.5 64.0625 14.71875 69.140625 
Q 20.953125 74.21875 31.78125 74.21875 
Q 42.671875 74.21875 48.875 69.140625 
Q 55.078125 64.0625 55.078125 55.328125 
Q 55.078125 49.078125 51.53125 44.71875 
Q 48 40.375 41.703125 38.8125 
Q 48.828125 37.15625 52.796875 32.3125 
Q 56.78125 27.484375 56.78125 20.515625 
Q 56.78125 9.90625 50.3125 4.234375 
Q 43.84375 -1.421875 31.78125 -1.421875 
Q 19.734375 -1.421875 13.25 4.234375 
Q 6.78125 9.90625 6.78125 20.515625 
Q 6.78125 27.484375 10.78125 32.3125 
Q 14.796875 37.15625 21.921875 38.8125 
z
M 18.3125 54.390625 
Q 18.3125 48.734375 21.84375 45.5625 
Q 25.390625 42.390625 31.78125 42.390625 
Q 38.140625 42.390625 41.71875 45.5625 
Q 45.3125 48.734375 45.3125 54.390625 
Q 45.3125 60.0625 41.71875 63.234375 
Q 38.140625 66.40625 31.78125 66.40625 
Q 25.390625 66.40625 21.84375 63.234375 
Q 18.3125 60.0625 18.3125 54.390625 
z
" id="DejaVuSans-56"/>
       </defs>
       <use xlink:href="#DejaVuSans-48"/>
       <use x="63.623047" xlink:href="#DejaVuSans-46"/>
       <use x="95.410156" xlink:href="#DejaVuSans-56"/>
      </g>
     </g>
    </g>
    <g id="xtick_6">
     <g id="line2d_6">
      <g>
       <use style="stroke:#000000;stroke-width:0.8;" x="373.581818" xlink:href="#mda8adbffa1" y="252"/>
      </g>
     </g>
     <g id="text_6">
      <!-- 1.0 -->
      <g transform="translate(365.630256 266.598437)scale(0.1 -0.1)">
       <defs>
        <path d="M 12.40625 8.296875 
L 28.515625 8.296875 
L 28.515625 63.921875 
L 10.984375 60.40625 
L 10.984375 69.390625 
L 28.421875 72.90625 
L 38.28125 72.90625 
L 38.28125 8.296875 
L 54.390625 8.296875 
L 54.390625 0 
L 12.40625 0 
z
" id="DejaVuSans-49"/>
       </defs>
       <use xlink:href="#DejaVuSans-49"/>
       <use x="63.623047" xlink:href="#DejaVuSans-46"/>
       <use x="95.410156" xlink:href="#DejaVuSans-48"/>
      </g>
     </g>
    </g>
    <g id="text_7">
     <!-- time t -->
     <g transform="translate(206.554688 280.276563)scale(0.1 -0.1)">
      <defs>
       <path d="M 18.3125 70.21875 
L 18.3125 54.6875 
L 36.8125 54.6875 
L 36.8125 47.703125 
L 18.3125 47.703125 
L 18.3125 18.015625 
Q 18.3125 11.328125 20.140625 9.421875 
Q 21.96875 7.515625 27.59375 7.515625 
L 36.8125 7.515625 
L 36.8125 0 
L 27.59375 0 
Q 17.1875 0 13.234375 3.875 
Q 9.28125 7.765625 9.28125 18.015625 
L 9.28125 47.703125 
L 2.6875 47.703125 
L 2.6875 54.6875 
L 9.28125 54.6875 
L 9.28125 70.21875 
z
" id="DejaVuSans-116"/>
       <path d="M 9.421875 54.6875 
L 18.40625 54.6875 
L 18.40625 0 
L 9.421875 0 
z
M 9.421875 75.984375 
L 18.40625 75.984375 
L 18.40625 64.59375 
L 9.421875 64.59375 
z
" id="DejaVuSans-105"/>
       <path d="M 52 44.1875 
Q 55.375 50.25 60.0625 53.125 
Q 64.75 56 71.09375 56 
Q 79.640625 56 84.28125 50.015625 
Q 88.921875 44.046875 88.921875 33.015625 
L 88.921875 0 
L 79.890625 0 
L 79.890625 32.71875 
Q 79.890625 40.578125 77.09375 44.375 
Q 74.3125 48.1875 68.609375 48.1875 
Q 61.625 48.1875 57.5625 43.546875 
Q 53.515625 38.921875 53.515625 30.90625 
L 53.515625 0 
L 44.484375 0 
L 44.484375 32.71875 
Q 44.484375 40.625 41.703125 44.40625 
Q 38.921875 48.1875 33.109375 48.1875 
Q 26.21875 48.1875 22.15625 43.53125 
Q 18.109375 38.875 18.109375 30.90625 
L 18.109375 0 
L 9.078125 0 
L 9.078125 54.6875 
L 18.109375 54.6875 
L 18.109375 46.1875 
Q 21.1875 51.21875 25.484375 53.609375 
Q 29.78125 56 35.6875 56 
Q 41.65625 56 45.828125 52.96875 
Q 50 49.953125 52 44.1875 
z
" id="DejaVuSans-109"/>
       <path d="M 56.203125 29.59375 
L 56.203125 25.203125 
L 14.890625 25.203125 
Q 15.484375 15.921875 20.484375 11.0625 
Q 25.484375 6.203125 34.421875 6.203125 
Q 39.59375 6.203125 44.453125 7.46875 
Q 49.3125 8.734375 54.109375 11.28125 
L 54.109375 2.78125 
Q 49.265625 0.734375 44.1875 -0.34375 
Q 39.109375 -1.421875 33.890625 -1.421875 
Q 20.796875 -1.421875 13.15625 6.1875 
Q 5.515625 13.8125 5.515625 26.8125 
Q 5.515625 40.234375 12.765625 48.109375 
Q 20.015625 56 32.328125 56 
Q 43.359375 56 49.78125 48.890625 
Q 56.203125 41.796875 56.203125 29.59375 
z
M 47.21875 32.234375 
Q 47.125 39.59375 43.09375 43.984375 
Q 39.0625 48.390625 32.421875 48.390625 
Q 24.90625 48.390625 20.390625 44.140625 
Q 15.875 39.890625 15.1875 32.171875 
z
" id="DejaVuSans-101"/>
       <path id="DejaVuSans-32"/>
      </defs>
      <use xlink:href="#DejaVuSans-116"/>
      <use x="39.208984" xlink:href="#DejaVuSans-105"/>
      <use x="66.992188" xlink:href="#DejaVuSans-109"/>
      <use x="164.404297" xlink:href="#DejaVuSans-101"/>
      <use x="225.927734" xlink:href="#DejaVuSans-32"/>
      <use x="257.714844" xlink:href="#DejaVuSans-116"/>
     </g>
    </g>
   </g>
   <g id="matplotlib.axis_2">
    <g id="ytick_1">
     <g id="line2d_7">
      <defs>
       <path d="M 0 0 
L -3.5 0 
" id="me0fc419623" style="stroke:#000000;stroke-width:0.8;"/>
      </defs>
      <g>
       <use style="stroke:#000000;stroke-width:0.8;" x="54" xlink:href="#me0fc419623" y="251.911664"/>
      </g>
     </g>
     <g id="text_8">
      <!-- −0.5 -->
      <g transform="translate(22.717187 255.710882)scale(0.1 -0.1)">
       <defs>
        <path d="M 10.59375 35.5 
L 73.1875 35.5 
L 73.1875 27.203125 
L 10.59375 27.203125 
z
" id="DejaVuSans-8722"/>
        <path d="M 10.796875 72.90625 
L 49.515625 72.90625 
L 49.515625 64.59375 
L 19.828125 64.59375 
L 19.828125 46.734375 
Q 21.96875 47.46875 24.109375 47.828125 
Q 26.265625 48.1875 28.421875 48.1875 
Q 40.625 48.1875 47.75 41.5 
Q 54.890625 34.8125 54.890625 23.390625 
Q 54.890625 11.625 47.5625 5.09375 
Q 40.234375 -1.421875 26.90625 -1.421875 
Q 22.3125 -1.421875 17.546875 -0.640625 
Q 12.796875 0.140625 7.71875 1.703125 
L 7.71875 11.625 
Q 12.109375 9.234375 16.796875 8.0625 
Q 21.484375 6.890625 26.703125 6.890625 
Q 35.15625 6.890625 40.078125 11.328125 
Q 45.015625 15.765625 45.015625 23.390625 
Q 45.015625 31 40.078125 35.4375 
Q 35.15625 39.890625 26.703125 39.890625 
Q 22.75 39.890625 18.8125 39.015625 
Q 14.890625 38.140625 10.796875 36.28125 
z
" id="DejaVuSans-53"/>
       </defs>
       <use xlink:href="#DejaVuSans-8722"/>
       <use x="83.789062" xlink:href="#DejaVuSans-48"/>
       <use x="147.412109" xlink:href="#DejaVuSans-46"/>
       <use x="179.199219" xlink:href="#DejaVuSans-53"/>
      </g>
     </g>
    </g>
    <g id="ytick_2">
     <g id="line2d_8">
      <g>
       <use style="stroke:#000000;stroke-width:0.8;" x="54" xlink:href="#me0fc419623" y="206.180322"/>
      </g>
     </g>
     <g id="text_9">
      <!-- −0.4 -->
      <g transform="translate(22.717187 209.979541)scale(0.1 -0.1)">
       <use xlink:href="#DejaVuSans-8722"/>
       <use x="83.789062" xlink:href="#DejaVuSans-48"/>
       <use x="147.412109" xlink:href="#DejaVuSans-46"/>
       <use x="179.199219" xlink:href="#DejaVuSans-52"/>
      </g>
     </g>
    </g>
    <g id="ytick_3">
     <g id="line2d_9">
      <g>
       <use style="stroke:#000000;stroke-width:0.8;" x="54" xlink:href="#me0fc419623" y="160.448981"/>
      </g>
     </g>
     <g id="text_10">
      <!-- −0.3 -->
      <g transform="translate(22.717187 164.248199)scale(0.1 -0.1)">
       <defs>
        <path d="M 40.578125 39.3125 
Q 47.65625 37.796875 51.625 33 
Q 55.609375 28.21875 55.609375 21.1875 
Q 55.609375 10.40625 48.1875 4.484375 
Q 40.765625 -1.421875 27.09375 -1.421875 
Q 22.515625 -1.421875 17.65625 -0.515625 
Q 12.796875 0.390625 7.625 2.203125 
L 7.625 11.71875 
Q 11.71875 9.328125 16.59375 8.109375 
Q 21.484375 6.890625 26.8125 6.890625 
Q 36.078125 6.890625 40.9375 10.546875 
Q 45.796875 14.203125 45.796875 21.1875 
Q 45.796875 27.640625 41.28125 31.265625 
Q 36.765625 34.90625 28.71875 34.90625 
L 20.21875 34.90625 
L 20.21875 43.015625 
L 29.109375 43.015625 
Q 36.375 43.015625 40.234375 45.921875 
Q 44.09375 48.828125 44.09375 54.296875 
Q 44.09375 59.90625 40.109375 62.90625 
Q 36.140625 65.921875 28.71875 65.921875 
Q 24.65625 65.921875 20.015625 65.03125 
Q 15.375 64.15625 9.8125 62.3125 
L 9.8125 71.09375 
Q 15.4375 72.65625 20.34375 73.4375 
Q 25.25 74.21875 29.59375 74.21875 
Q 40.828125 74.21875 47.359375 69.109375 
Q 53.90625 64.015625 53.90625 55.328125 
Q 53.90625 49.265625 50.4375 45.09375 
Q 46.96875 40.921875 40.578125 39.3125 
z
" id="DejaVuSans-51"/>
       </defs>
       <use xlink:href="#DejaVuSans-8722"/>
       <use x="83.789062" xlink:href="#DejaVuSans-48"/>
       <use x="147.412109" xlink:href="#DejaVuSans-46"/>
       <use x="179.199219" xlink:href="#DejaVuSans-51"/>
      </g>
     </g>
    </g>
    <g id="ytick_4">
     <g id="line2d_10">
      <g>
       <use style="stroke:#000000;stroke-width:0.8;" x="54" xlink:href="#me0fc419623" y="114.717639"/>
      </g>
     </g>
     <g id="text_11">
      <!-- −0.2 -->
      <g transform="translate(22.717187 118.516858)scale(0.1 -0.1)">
       <use xlink:href="#DejaVuSans-8722"/>
       <use x="83.789062" xlink:href="#DejaVuSans-48"/>
       <use x="147.412109" xlink:href="#DejaVuSans-46"/>
       <use x="179.199219" xlink:href="#DejaVuSans-50"/>
      </g>
     </g>
    </g>
    <g id="ytick_5">
     <g id="line2d_11">
      <g>
       <use style="stroke:#000000;stroke-width:0.8;" x="54" xlink:href="#me0fc419623" y="68.986298"/>
      </g>
     </g>
     <g id="text_12">
      <!-- −0.1 -->
      <g transform="translate(22.717187 72.785516)scale(0.1 -0.1)">
       <use xlink:href="#DejaVuSans-8722"/>
       <use x="83.789062" xlink:href="#DejaVuSans-48"/>
       <use x="147.412109" xlink:href="#DejaVuSans-46"/>
       <use x="179.199219" xlink:href="#DejaVuSans-49"/>
      </g>
     </g>
    </g>
    <g id="text_13">
     <!-- Entropy, bit -->
     <g transform="translate(16.6375 172.405781)rotate(-90)scale(0.1 -0.1)">
      <defs>
       <path d="M 9.8125 72.90625 
L 55.90625 72.90625 
L 55.90625 64.59375 
L 19.671875 64.59375 
L 19.671875 43.015625 
L 54.390625 43.015625 
L 54.390625 34.71875 
L 19.671875 34.71875 
L 19.671875 8.296875 
L 56.78125 8.296875 
L 56.78125 0 
L 9.8125 0 
z
" id="DejaVuSans-69"/>
       <path d="M 54.890625 33.015625 
L 54.890625 0 
L 45.90625 0 
L 45.90625 32.71875 
Q 45.90625 40.484375 42.875 44.328125 
Q 39.84375 48.1875 33.796875 48.1875 
Q 26.515625 48.1875 22.3125 43.546875 
Q 18.109375 38.921875 18.109375 30.90625 
L 18.109375 0 
L 9.078125 0 
L 9.078125 54.6875 
L 18.109375 54.6875 
L 18.109375 46.1875 
Q 21.34375 51.125 25.703125 53.5625 
Q 30.078125 56 35.796875 56 
Q 45.21875 56 50.046875 50.171875 
Q 54.890625 44.34375 54.890625 33.015625 
z
" id="DejaVuSans-110"/>
       <path d="M 41.109375 46.296875 
Q 39.59375 47.171875 37.8125 47.578125 
Q 36.03125 48 33.890625 48 
Q 26.265625 48 22.1875 43.046875 
Q 18.109375 38.09375 18.109375 28.8125 
L 18.109375 0 
L 9.078125 0 
L 9.078125 54.6875 
L 18.109375 54.6875 
L 18.109375 46.1875 
Q 20.953125 51.171875 25.484375 53.578125 
Q 30.03125 56 36.53125 56 
Q 37.453125 56 38.578125 55.875 
Q 39.703125 55.765625 41.0625 55.515625 
z
" id="DejaVuSans-114"/>
       <path d="M 30.609375 48.390625 
Q 23.390625 48.390625 19.1875 42.75 
Q 14.984375 37.109375 14.984375 27.296875 
Q 14.984375 17.484375 19.15625 11.84375 
Q 23.34375 6.203125 30.609375 6.203125 
Q 37.796875 6.203125 41.984375 11.859375 
Q 46.1875 17.53125 46.1875 27.296875 
Q 46.1875 37.015625 41.984375 42.703125 
Q 37.796875 48.390625 30.609375 48.390625 
z
M 30.609375 56 
Q 42.328125 56 49.015625 48.375 
Q 55.71875 40.765625 55.71875 27.296875 
Q 55.71875 13.875 49.015625 6.21875 
Q 42.328125 -1.421875 30.609375 -1.421875 
Q 18.84375 -1.421875 12.171875 6.21875 
Q 5.515625 13.875 5.515625 27.296875 
Q 5.515625 40.765625 12.171875 48.375 
Q 18.84375 56 30.609375 56 
z
" id="DejaVuSans-111"/>
       <path d="M 18.109375 8.203125 
L 18.109375 -20.796875 
L 9.078125 -20.796875 
L 9.078125 54.6875 
L 18.109375 54.6875 
L 18.109375 46.390625 
Q 20.953125 51.265625 25.265625 53.625 
Q 29.59375 56 35.59375 56 
Q 45.5625 56 51.78125 48.09375 
Q 58.015625 40.1875 58.015625 27.296875 
Q 58.015625 14.40625 51.78125 6.484375 
Q 45.5625 -1.421875 35.59375 -1.421875 
Q 29.59375 -1.421875 25.265625 0.953125 
Q 20.953125 3.328125 18.109375 8.203125 
z
M 48.6875 27.296875 
Q 48.6875 37.203125 44.609375 42.84375 
Q 40.53125 48.484375 33.40625 48.484375 
Q 26.265625 48.484375 22.1875 42.84375 
Q 18.109375 37.203125 18.109375 27.296875 
Q 18.109375 17.390625 22.1875 11.75 
Q 26.265625 6.109375 33.40625 6.109375 
Q 40.53125 6.109375 44.609375 11.75 
Q 48.6875 17.390625 48.6875 27.296875 
z
" id="DejaVuSans-112"/>
       <path d="M 32.171875 -5.078125 
Q 28.375 -14.84375 24.75 -17.8125 
Q 21.140625 -20.796875 15.09375 -20.796875 
L 7.90625 -20.796875 
L 7.90625 -13.28125 
L 13.1875 -13.28125 
Q 16.890625 -13.28125 18.9375 -11.515625 
Q 21 -9.765625 23.484375 -3.21875 
L 25.09375 0.875 
L 2.984375 54.6875 
L 12.5 54.6875 
L 29.59375 11.921875 
L 46.6875 54.6875 
L 56.203125 54.6875 
z
" id="DejaVuSans-121"/>
       <path d="M 11.71875 12.40625 
L 22.015625 12.40625 
L 22.015625 4 
L 14.015625 -11.625 
L 7.71875 -11.625 
L 11.71875 4 
z
" id="DejaVuSans-44"/>
       <path d="M 48.6875 27.296875 
Q 48.6875 37.203125 44.609375 42.84375 
Q 40.53125 48.484375 33.40625 48.484375 
Q 26.265625 48.484375 22.1875 42.84375 
Q 18.109375 37.203125 18.109375 27.296875 
Q 18.109375 17.390625 22.1875 11.75 
Q 26.265625 6.109375 33.40625 6.109375 
Q 40.53125 6.109375 44.609375 11.75 
Q 48.6875 17.390625 48.6875 27.296875 
z
M 18.109375 46.390625 
Q 20.953125 51.265625 25.265625 53.625 
Q 29.59375 56 35.59375 56 
Q 45.5625 56 51.78125 48.09375 
Q 58.015625 40.1875 58.015625 27.296875 
Q 58.015625 14.40625 51.78125 6.484375 
Q 45.5625 -1.421875 35.59375 -1.421875 
Q 29.59375 -1.421875 25.265625 0.953125 
Q 20.953125 3.328125 18.109375 8.203125 
L 18.109375 0 
L 9.078125 0 
L 9.078125 75.984375 
L 18.109375 75.984375 
z
" id="DejaVuSans-98"/>
      </defs>
      <use xlink:href="#DejaVuSans-69"/>
      <use x="63.183594" xlink:href="#DejaVuSans-110"/>
      <use x="126.5625" xlink:href="#DejaVuSans-116"/>
      <use x="165.771484" xlink:href="#DejaVuSans-114"/>
      <use x="204.634766" xlink:href="#DejaVuSans-111"/>
      <use x="265.816406" xlink:href="#DejaVuSans-112"/>
      <use x="329.292969" xlink:href="#DejaVuSans-121"/>
      <use x="388.472656" xlink:href="#DejaVuSans-44"/>
      <use x="420.259766" xlink:href="#DejaVuSans-32"/>
      <use x="452.046875" xlink:href="#DejaVuSans-98"/>
      <use x="515.523438" xlink:href="#DejaVuSans-105"/>
      <use x="543.306641" xlink:href="#DejaVuSans-116"/>
     </g>
    </g>
   </g>
   <g id="line2d_12">
    <path clip-path="url(#p2312a8a5be)" d="M 69.218182 76.054466 
L 70.747647 76.409569 
L 73.806578 75.495067 
L 75.336044 75.546717 
L 76.865509 75.792244 
L 78.394974 76.493043 
L 79.92444 76.386373 
L 81.453906 76.401276 
L 82.983371 75.370716 
L 84.512837 74.685885 
L 86.042302 75.447219 
L 87.571767 73.173557 
L 89.101233 73.835415 
L 92.160164 71.186857 
L 93.68963 71.228289 
L 95.219095 71.068336 
L 96.748561 69.787949 
L 98.278027 69.743273 
L 101.336958 67.232743 
L 102.866421 67.41512 
L 104.395889 66.266587 
L 105.925353 64.91953 
L 107.454816 64.044412 
L 108.984284 62.613619 
L 110.513747 62.095713 
L 113.572678 61.711365 
L 115.102146 61.785037 
L 116.63161 61.19715 
L 118.161078 60.139267 
L 121.220009 60.27633 
L 122.749472 59.979027 
L 124.27894 58.885402 
L 125.808403 61.143833 
L 127.337871 59.877972 
L 128.867335 60.641465 
L 131.926266 58.871306 
L 133.455734 58.584975 
L 134.985197 58.045143 
L 136.514665 58.550582 
L 138.044129 58.649436 
L 139.573596 58.48011 
L 141.10306 57.592385 
L 144.161987 56.97358 
L 145.69145 56.202714 
L 147.220922 56.720067 
L 148.750386 55.656361 
L 150.279849 55.522275 
L 151.809312 55.613368 
L 153.338785 54.625238 
L 154.868248 53.242518 
L 157.927175 53.835445 
L 159.456647 54.315349 
L 160.986111 53.420844 
L 162.515574 53.598651 
L 164.045038 54.450385 
L 165.57451 53.713111 
L 167.103973 54.734969 
L 168.633437 55.203255 
L 170.1629 54.74131 
L 171.692373 56.192846 
L 173.221836 57.370429 
L 174.751299 57.59754 
L 176.280763 58.873068 
L 177.810235 61.039994 
L 179.339698 62.384434 
L 180.869162 63.357626 
L 182.398625 64.869498 
L 185.457561 68.60946 
L 186.987024 69.511935 
L 190.04596 74.997925 
L 191.575424 76.479462 
L 193.104887 78.16433 
L 194.63435 78.468458 
L 196.163823 80.294445 
L 197.693286 81.761344 
L 200.752213 83.743689 
L 202.281685 83.164845 
L 203.811149 83.905949 
L 205.340612 83.499049 
L 208.399548 84.195518 
L 209.929011 84.15859 
L 212.987938 80.739585 
L 214.51741 81.924381 
L 216.046865 79.107767 
L 217.576328 78.458775 
L 219.105791 76.100549 
L 220.635264 75.563058 
L 222.164718 73.857852 
L 225.223663 72.493194 
L 226.753117 70.372688 
L 228.28259 68.830069 
L 229.812062 69.663009 
L 231.341516 68.398759 
L 232.870989 67.448129 
L 234.400443 67.515467 
L 235.929916 67.832947 
L 237.459388 68.675046 
L 240.518315 71.423246 
L 242.047787 73.25254 
L 243.577241 75.469127 
L 245.106714 76.745098 
L 248.165641 82.808542 
L 249.695113 88.893851 
L 251.224567 91.71703 
L 252.75404 97.212557 
L 254.283512 103.963772 
L 255.812967 110.209957 
L 257.342439 118.063765 
L 260.401366 135.380734 
L 261.930838 143.402417 
L 263.460292 152.182233 
L 264.989765 162.421266 
L 266.519237 169.261212 
L 268.048692 180.591915 
L 269.578164 185.565274 
L 271.107618 195.05493 
L 272.637091 200.173165 
L 274.166563 206.74616 
L 277.22549 218.028575 
L 278.754962 222.589139 
L 280.284417 223.013055 
L 281.813889 226.506032 
L 283.343343 227.236042 
L 284.872816 225.705342 
L 286.402288 225.757214 
L 289.461215 220.295473 
L 290.990688 213.901972 
L 292.520142 212.565144 
L 294.049614 209.666855 
L 295.579069 204.548265 
L 300.167468 191.94839 
L 301.69694 185.861459 
L 303.226413 182.500765 
L 304.755867 176.399934 
L 306.285339 171.578906 
L 307.814794 168.928433 
L 309.344266 165.71665 
L 310.873738 161.150389 
L 315.462138 151.813473 
L 316.991592 147.754729 
L 318.521064 146.889219 
L 320.050519 142.984074 
L 324.638918 134.245908 
L 326.16839 131.777226 
L 327.697863 132.339592 
L 330.756789 128.829784 
L 332.286244 127.859235 
L 333.815716 124.238268 
L 335.345189 122.432569 
L 336.874643 120.957549 
L 338.404115 119.712254 
L 339.933588 119.6022 
L 341.463042 117.34183 
L 342.992515 117.434289 
L 344.521969 113.974512 
L 346.051441 113.936814 
L 347.580914 112.36582 
L 349.110368 109.227613 
L 350.63984 108.822777 
L 352.169313 106.879642 
L 353.698767 106.742446 
L 355.22824 102.434414 
L 356.757694 101.793306 
L 358.287166 99.660708 
L 361.346093 96.110748 
L 362.875566 93.670898 
L 364.40502 90.560071 
L 365.934492 90.873838 
L 367.463965 87.309643 
L 368.993419 86.271174 
L 370.522891 83.421963 
L 372.052346 81.947039 
L 373.581818 80.692217 
L 373.581818 80.692217 
" style="fill:none;stroke:#1f77b4;stroke-linecap:square;stroke-width:1.5;"/>
   </g>
   <g id="patch_3">
    <path d="M 54 252 
L 54 34.56 
" style="fill:none;stroke:#000000;stroke-linecap:square;stroke-linejoin:miter;stroke-width:0.8;"/>
   </g>
   <g id="patch_4">
    <path d="M 388.8 252 
L 388.8 34.56 
" style="fill:none;stroke:#000000;stroke-linecap:square;stroke-linejoin:miter;stroke-width:0.8;"/>
   </g>
   <g id="patch_5">
    <path d="M 54 252 
L 388.8 252 
" style="fill:none;stroke:#000000;stroke-linecap:square;stroke-linejoin:miter;stroke-width:0.8;"/>
   </g>
   <g id="patch_6">
    <path d="M 54 34.56 
L 388.8 34.56 
" style="fill:none;stroke:#000000;stroke-linecap:square;stroke-linejoin:miter;stroke-width:0.8;"/>
   </g>
  </g>
 </g>
 <defs>
  <clipPath id="p2312a8a5be">
   <rect height="217.44" width="334.8" x="54" y="34.56"/>
  </clipPath>
 </defs>
</svg>
