<?xml version="1.0" encoding="utf-8" standalone="no"?>
<!DOCTYPE svg PUBLIC "-//W3C//DTD SVG 1.1//EN"
  "http://www.w3.org/Graphics/SVG/1.1/DTD/svg11.dtd">
<!-- Created with matplotlib (https://matplotlib.org/) -->
<svg height="288pt" version="1.1" viewBox="0 0 432 288" width="432pt" xmlns="http://www.w3.org/2000/svg" xmlns:xlink="http://www.w3.org/1999/xlink">
 <metadata>
  <rdf:RDF xmlns:cc="http://creativecommons.org/ns#" xmlns:dc="http://purl.org/dc/elements/1.1/" xmlns:rdf="http://www.w3.org/1999/02/22-rdf-syntax-ns#">
   <cc:Work>
    <dc:type rdf:resource="http://purl.org/dc/dcmitype/StillImage"/>
    <dc:date>2021-05-31T00:07:11.816149</dc:date>
    <dc:format>image/svg+xml</dc:format>
    <dc:creator>
     <cc:Agent>
      <dc:title>Matplotlib v3.3.1, https://matplotlib.org/</dc:title>
     </cc:Agent>
    </dc:creator>
   </cc:Work>
  </rdf:RDF>
 </metadata>
 <defs>
  <style type="text/css">*{stroke-linecap:butt;stroke-linejoin:round;}</style>
 </defs>
 <g id="figure_1">
  <g id="patch_1">
   <path d="M 0 288 
L 432 288 
L 432 0 
L 0 0 
z
" style="fill:none;"/>
  </g>
  <g id="axes_1">
   <g id="patch_2">
    <path d="M 54 252 
L 388.8 252 
L 388.8 34.56 
L 54 34.56 
z
" style="fill:#ffffff;"/>
   </g>
   <g id="PolyCollection_1">
    <path clip-path="url(#p4cf340e79a)" d="M 69.218182 62.219961 
L 69.218182 81.330511 
L 70.747647 80.76238 
L 72.277113 79.374842 
L 73.806578 77.852353 
L 75.336044 78.855838 
L 76.865509 78.71218 
L 78.394974 79.454042 
L 79.92444 79.958203 
L 81.453906 78.937773 
L 82.983371 78.052994 
L 84.512837 77.88252 
L 86.042302 78.154148 
L 87.571767 75.342411 
L 89.101233 76.357981 
L 90.630698 74.678361 
L 92.160164 74.385358 
L 93.68963 73.579081 
L 95.219095 73.741462 
L 96.748561 71.523015 
L 98.278027 70.812837 
L 99.807492 70.5425 
L 101.336958 68.293488 
L 102.866421 67.904657 
L 104.395889 66.435571 
L 105.925353 66.05084 
L 107.454816 66.001415 
L 108.984284 63.822616 
L 110.513747 62.957628 
L 112.043215 61.840683 
L 113.572678 62.090905 
L 115.102146 63.025828 
L 116.63161 62.786156 
L 118.161078 60.590909 
L 119.690541 62.104648 
L 121.220009 62.391533 
L 122.749472 62.150768 
L 124.27894 60.969208 
L 125.808403 64.034858 
L 127.337871 62.70474 
L 128.867335 63.516821 
L 130.396803 63.321928 
L 131.926266 62.378983 
L 133.455734 62.009908 
L 134.985197 61.495627 
L 136.514665 63.776172 
L 138.044129 63.729072 
L 139.573596 64.02589 
L 141.10306 62.177977 
L 142.632523 62.247108 
L 144.161987 61.492746 
L 145.69145 61.970328 
L 147.220922 62.069417 
L 148.750386 61.871063 
L 150.279849 61.541293 
L 151.809312 61.177108 
L 153.338785 60.171018 
L 154.868248 59.65915 
L 156.397712 59.47641 
L 157.927175 59.788739 
L 159.456647 59.404536 
L 160.986111 59.905032 
L 162.515574 59.003217 
L 164.045038 59.375621 
L 165.57451 58.738512 
L 167.103973 59.394746 
L 168.633437 59.677887 
L 170.1629 58.341677 
L 171.692373 59.893923 
L 173.221836 60.324258 
L 174.751299 60.913296 
L 176.280763 61.464862 
L 177.810235 62.662262 
L 179.339698 64.37926 
L 180.869162 64.76798 
L 182.398625 65.769468 
L 183.928098 67.798495 
L 185.457561 70.418396 
L 186.987024 70.788759 
L 188.516488 73.881247 
L 190.04596 77.561211 
L 191.575424 78.578407 
L 193.104887 80.655446 
L 194.63435 81.111811 
L 196.163823 82.596632 
L 197.693286 84.93768 
L 199.222749 85.322864 
L 200.752213 84.821372 
L 202.281685 84.52904 
L 203.811149 84.513284 
L 205.340612 84.892618 
L 206.870075 84.218319 
L 208.399548 85.277065 
L 209.929011 84.702265 
L 211.458475 82.038223 
L 212.987938 79.943138 
L 214.51741 82.061709 
L 216.046865 78.252102 
L 217.576328 78.894484 
L 219.105791 76.751178 
L 220.635264 76.335645 
L 222.164718 75.713761 
L 223.694191 74.689167 
L 225.223663 74.707651 
L 226.753117 72.494642 
L 228.28259 72.138485 
L 229.812062 72.823808 
L 231.341516 71.331466 
L 232.870989 70.229428 
L 234.400443 70.426763 
L 235.929916 70.676749 
L 237.459388 71.27196 
L 238.988842 72.240788 
L 240.518315 73.232696 
L 242.047787 74.165486 
L 243.577241 75.876681 
L 245.106714 77.42523 
L 246.636168 80.015592 
L 248.165641 81.819312 
L 249.695113 87.09601 
L 251.224567 90.116807 
L 252.75404 95.774094 
L 254.283512 101.383708 
L 255.812967 108.37068 
L 257.342439 114.925461 
L 258.871893 123.805151 
L 260.401366 131.948293 
L 261.930838 138.025521 
L 263.460292 146.334405 
L 264.989765 156.650802 
L 266.519237 162.648524 
L 268.048692 172.101447 
L 269.578164 179.058799 
L 271.107618 186.520849 
L 272.637091 191.861034 
L 274.166563 198.560929 
L 275.696018 202.395082 
L 277.22549 209.519673 
L 278.754962 213.833541 
L 280.284417 212.413662 
L 281.813889 214.155209 
L 283.343343 215.356967 
L 284.872816 212.757154 
L 286.402288 213.174202 
L 287.931743 209.779923 
L 289.461215 207.793786 
L 290.990688 202.236728 
L 292.520142 199.867058 
L 294.049614 195.958713 
L 295.579069 192.471199 
L 297.108541 188.290207 
L 298.638013 182.85991 
L 300.167468 178.894047 
L 301.69694 175.869739 
L 303.226413 171.464498 
L 304.755867 164.500782 
L 306.285339 160.916167 
L 307.814794 158.964947 
L 309.344266 155.244875 
L 310.873738 151.51018 
L 312.403193 147.618179 
L 313.932665 144.760285 
L 315.462138 142.870271 
L 316.991592 139.012149 
L 318.521064 140.252664 
L 320.050519 138.424822 
L 321.579991 134.924617 
L 323.109464 134.176945 
L 324.638918 130.527577 
L 326.16839 128.545895 
L 327.697863 130.712303 
L 329.227317 129.722682 
L 330.756789 130.193182 
L 332.286244 128.744503 
L 333.815716 124.204193 
L 335.345189 122.563575 
L 336.874643 120.319699 
L 338.404115 120.408827 
L 339.933588 120.899555 
L 341.463042 118.116165 
L 342.992515 118.531976 
L 344.521969 113.516876 
L 346.051441 113.319194 
L 347.580914 113.190565 
L 349.110368 109.176912 
L 350.63984 108.80977 
L 352.169313 107.02022 
L 353.698767 106.613666 
L 355.22824 101.57455 
L 356.757694 101.756425 
L 358.287166 100.018495 
L 359.816639 98.641875 
L 361.346093 96.055844 
L 362.875566 95.11479 
L 364.40502 92.348021 
L 365.934492 95.112386 
L 367.463965 91.602294 
L 368.993419 90.246331 
L 370.522891 88.438533 
L 372.052346 86.260035 
L 373.581818 85.687255 
L 373.581818 65.883077 
L 373.581818 65.883077 
L 372.052346 67.480209 
L 370.522891 67.852227 
L 368.993419 70.971444 
L 367.463965 71.411258 
L 365.934492 74.064568 
L 364.40502 76.286352 
L 362.875566 78.898997 
L 361.346093 82.177068 
L 359.816639 82.53578 
L 358.287166 84.353205 
L 356.757694 86.303082 
L 355.22824 87.593596 
L 353.698767 90.004169 
L 352.169313 89.834862 
L 350.63984 91.405489 
L 349.110368 91.738411 
L 347.580914 93.15152 
L 346.051441 95.739543 
L 344.521969 95.607049 
L 342.992515 96.574788 
L 341.463042 96.830713 
L 339.933588 97.956081 
L 338.404115 98.63712 
L 336.874643 100.879682 
L 335.345189 101.186491 
L 333.815716 102.66839 
L 332.286244 104.389657 
L 330.756789 104.61931 
L 329.227317 108.235134 
L 327.697863 110.169533 
L 326.16839 111.363477 
L 324.638918 113.650772 
L 323.109464 115.143901 
L 321.579991 119.303233 
L 320.050519 120.86405 
L 318.521064 125.789202 
L 316.991592 128.526404 
L 315.462138 131.686888 
L 313.932665 135.223341 
L 312.403193 137.784349 
L 310.873738 139.192892 
L 309.344266 143.354429 
L 307.814794 145.188351 
L 306.285339 147.820475 
L 304.755867 152.57265 
L 303.226413 156.158832 
L 301.69694 157.565089 
L 300.167468 165.066638 
L 298.638013 168.052 
L 297.108541 170.208746 
L 295.579069 173.277892 
L 294.049614 178.641728 
L 292.520142 179.745265 
L 290.990688 179.687311 
L 289.461215 185.186251 
L 287.931743 187.821003 
L 286.402288 189.25058 
L 284.872816 189.577929 
L 283.343343 189.625088 
L 281.813889 189.564471 
L 280.284417 185.265769 
L 278.754962 183.11283 
L 277.22549 179.540318 
L 275.696018 176.649628 
L 274.166563 170.988883 
L 272.637091 166.32239 
L 271.107618 162.811838 
L 269.578164 153.863848 
L 268.048692 152.220991 
L 266.519237 142.080235 
L 264.989765 136.249941 
L 263.460292 128.860434 
L 261.930838 121.986777 
L 260.401366 114.19246 
L 258.871893 107.612125 
L 257.342439 101.269828 
L 255.812967 94.243368 
L 254.283512 90.429089 
L 252.75404 84.364128 
L 251.224567 80.518245 
L 249.695113 78.657042 
L 248.165641 73.410684 
L 246.636168 70.032287 
L 245.106714 67.319525 
L 243.577241 66.661594 
L 242.047787 64.539744 
L 240.518315 62.309216 
L 238.988842 60.966363 
L 237.459388 59.517612 
L 235.929916 58.656619 
L 234.400443 58.3576 
L 232.870989 58.438491 
L 231.341516 58.980335 
L 229.812062 59.674204 
L 228.28259 58.919161 
L 226.753117 61.230587 
L 225.223663 62.684475 
L 223.694191 63.875267 
L 222.164718 64.03821 
L 220.635264 66.365058 
L 219.105791 66.878988 
L 217.576328 68.813655 
L 216.046865 70.578314 
L 214.51741 71.63935 
L 212.987938 71.709105 
L 211.458475 72.484193 
L 209.929011 72.86231 
L 208.399548 72.351369 
L 206.870075 72.819504 
L 205.340612 71.531441 
L 203.811149 72.614409 
L 202.281685 71.317101 
L 200.752213 72.025736 
L 199.222749 69.836593 
L 197.693286 68.481449 
L 196.163823 68.285846 
L 194.63435 66.613076 
L 193.104887 66.543527 
L 191.575424 65.706995 
L 190.04596 64.162234 
L 188.516488 62.998675 
L 186.987024 61.448008 
L 185.457561 60.25776 
L 183.928098 59.683499 
L 182.398625 58.43934 
L 180.869162 56.826415 
L 179.339698 55.532235 
L 177.810235 54.924354 
L 176.280763 52.374585 
L 174.751299 50.720437 
L 173.221836 50.916744 
L 171.692373 49.310737 
L 170.1629 48.352903 
L 168.633437 47.815517 
L 167.103973 47.28887 
L 165.57451 46.178049 
L 164.045038 46.815878 
L 162.515574 45.715416 
L 160.986111 44.506126 
L 159.456647 46.553451 
L 157.927175 45.339369 
L 156.397712 45.085548 
L 154.868248 44.443636 
L 153.338785 46.322846 
L 151.809312 47.025486 
L 150.279849 46.503779 
L 148.750386 46.405876 
L 147.220922 48.046943 
L 145.69145 47.251394 
L 144.161987 49.062002 
L 142.632523 48.784044 
L 141.10306 49.44684 
L 139.573596 49.134032 
L 138.044129 49.723661 
L 136.514665 49.505614 
L 134.985197 50.912127 
L 133.455734 51.331352 
L 131.926266 51.457418 
L 130.396803 51.932785 
L 128.867335 53.380637 
L 127.337871 52.872442 
L 125.808403 53.731323 
L 124.27894 52.891568 
L 122.749472 53.601166 
L 121.220009 53.874513 
L 119.690541 54.018246 
L 118.161078 55.438119 
L 116.63161 55.072223 
L 115.102146 55.849158 
L 113.572678 56.656684 
L 112.043215 57.151111 
L 110.513747 56.454597 
L 108.984284 56.4852 
L 107.454816 56.780607 
L 105.925353 58.244485 
L 104.395889 60.18916 
L 102.866421 60.70618 
L 101.336958 60.001974 
L 99.807492 59.869165 
L 98.278027 61.823974 
L 96.748561 61.191051 
L 95.219095 61.186721 
L 93.68963 61.625702 
L 92.160164 60.747778 
L 90.630698 62.868011 
L 89.101233 63.355188 
L 87.571767 63.226236 
L 86.042302 64.346242 
L 84.512837 63.301327 
L 82.983371 64.315099 
L 81.453906 65.212425 
L 79.92444 64.166223 
L 78.394974 64.854845 
L 76.865509 64.384846 
L 75.336044 63.816609 
L 73.806578 64.730777 
L 72.277113 63.986431 
L 70.747647 63.402156 
L 69.218182 62.219961 
z
" style="fill:#1f77b4;fill-opacity:0.2;"/>
   </g>
   <g id="PolyCollection_2">
    <path clip-path="url(#p4cf340e79a)" d="M 69.218182 76.43192 
L 69.218182 92.848088 
L 70.747647 94.128727 
L 72.277113 92.23351 
L 73.806578 94.1876 
L 75.336044 92.756043 
L 76.865509 91.189918 
L 78.394974 94.606763 
L 79.92444 89.897135 
L 81.453906 90.209647 
L 82.983371 88.879232 
L 84.512837 89.992403 
L 86.042302 87.623722 
L 87.571767 87.201707 
L 89.101233 86.321406 
L 90.630698 86.581055 
L 92.160164 84.274187 
L 93.68963 85.234507 
L 95.219095 82.203641 
L 96.748561 85.019755 
L 98.278027 82.077535 
L 99.807492 79.835255 
L 101.336958 80.698387 
L 102.866421 79.323634 
L 104.395889 77.804492 
L 105.925353 77.568099 
L 107.454816 75.602679 
L 108.984284 75.643646 
L 110.513747 76.190766 
L 112.043215 73.069988 
L 113.572678 72.848289 
L 115.102146 70.926897 
L 116.63161 70.056109 
L 118.161078 69.995854 
L 119.690541 70.115412 
L 121.220009 68.672704 
L 122.749472 69.708893 
L 124.27894 68.739852 
L 125.808403 68.154325 
L 127.337871 69.061426 
L 128.867335 68.224938 
L 130.396803 64.849233 
L 131.926266 65.799988 
L 133.455734 65.664304 
L 134.985197 66.747464 
L 136.514665 68.276378 
L 138.044129 67.52548 
L 139.573596 69.294228 
L 141.10306 67.350644 
L 142.632523 65.84394 
L 144.161987 66.802905 
L 145.69145 68.275886 
L 147.220922 69.54399 
L 148.750386 63.898048 
L 150.279849 67.386988 
L 151.809312 65.754154 
L 153.338785 63.933716 
L 154.868248 66.684673 
L 156.397712 62.539693 
L 157.927175 64.137343 
L 159.456647 68.806473 
L 160.986111 62.409424 
L 162.515574 63.723772 
L 164.045038 65.280181 
L 165.57451 63.9584 
L 167.103973 67.421542 
L 168.633437 64.328789 
L 170.1629 69.337187 
L 171.692373 64.463398 
L 173.221836 69.580253 
L 174.751299 67.088476 
L 176.280763 71.845111 
L 177.810235 73.992158 
L 179.339698 73.016123 
L 180.869162 73.025872 
L 182.398625 77.324117 
L 183.928098 77.506186 
L 185.457561 79.356093 
L 186.987024 79.846367 
L 188.516488 76.819384 
L 190.04596 80.983778 
L 191.575424 79.863554 
L 193.104887 83.463429 
L 194.63435 82.363285 
L 196.163823 87.210622 
L 197.693286 80.68556 
L 199.222749 84.04966 
L 200.752213 79.462026 
L 202.281685 81.322934 
L 203.811149 79.302411 
L 205.340612 81.640607 
L 206.870075 79.682128 
L 208.399548 79.654076 
L 209.929011 81.35415 
L 211.458475 80.135023 
L 212.987938 81.797411 
L 214.51741 83.561342 
L 216.046865 83.687537 
L 217.576328 82.594965 
L 219.105791 82.519423 
L 220.635264 81.96204 
L 222.164718 85.55964 
L 223.694191 86.438215 
L 225.223663 87.211234 
L 226.753117 89.022196 
L 228.28259 92.486448 
L 229.812062 89.402643 
L 231.341516 94.813673 
L 232.870989 96.865064 
L 234.400443 100.319712 
L 235.929916 101.727583 
L 237.459388 102.863486 
L 238.988842 105.63604 
L 240.518315 108.597628 
L 242.047787 110.117082 
L 243.577241 113.682341 
L 245.106714 116.465443 
L 246.636168 121.444725 
L 248.165641 126.107912 
L 249.695113 129.88886 
L 251.224567 137.634669 
L 252.75404 138.341061 
L 254.283512 144.85055 
L 255.812967 145.033285 
L 257.342439 152.112084 
L 258.871893 157.574964 
L 260.401366 165.457231 
L 261.930838 173.071684 
L 263.460292 180.799522 
L 264.989765 175.516772 
L 266.519237 192.625439 
L 268.048692 202.071104 
L 269.578164 203.698217 
L 271.107618 210.334644 
L 272.637091 214.661144 
L 274.166563 218.44142 
L 275.696018 223.872283 
L 277.22549 227.952215 
L 278.754962 242.116364 
L 280.284417 227.733245 
L 281.813889 231.929909 
L 283.343343 238.83758 
L 284.872816 226.295618 
L 286.402288 228.54455 
L 287.931743 226.248152 
L 289.461215 228.987959 
L 290.990688 224.045579 
L 292.520142 219.39939 
L 294.049614 219.164805 
L 295.579069 208.435803 
L 297.108541 206.971686 
L 298.638013 207.281417 
L 300.167468 196.699621 
L 301.69694 191.918187 
L 303.226413 186.25334 
L 304.755867 180.123721 
L 306.285339 178.309654 
L 307.814794 170.799938 
L 309.344266 165.316872 
L 310.873738 164.162828 
L 312.403193 160.284768 
L 313.932665 154.440652 
L 315.462138 155.945729 
L 316.991592 149.103366 
L 318.521064 150.602516 
L 320.050519 148.261209 
L 321.579991 145.719539 
L 323.109464 144.241482 
L 324.638918 145.336841 
L 326.16839 144.121969 
L 327.697863 141.582749 
L 329.227317 142.230363 
L 330.756789 147.210547 
L 332.286244 145.892481 
L 333.815716 141.736625 
L 335.345189 146.093057 
L 336.874643 147.734817 
L 338.404115 148.146598 
L 339.933588 144.15091 
L 341.463042 143.522492 
L 342.992515 141.056334 
L 344.521969 144.783075 
L 346.051441 141.721836 
L 347.580914 140.641866 
L 349.110368 138.788984 
L 350.63984 138.459762 
L 352.169313 137.179935 
L 353.698767 133.949984 
L 355.22824 132.910811 
L 356.757694 132.991862 
L 358.287166 130.291967 
L 359.816639 125.80432 
L 361.346093 126.983594 
L 362.875566 124.089982 
L 364.40502 120.571641 
L 365.934492 120.275744 
L 367.463965 118.768905 
L 368.993419 115.873107 
L 370.522891 117.283159 
L 372.052346 115.019992 
L 373.581818 112.262633 
L 373.581818 90.485823 
L 373.581818 90.485823 
L 372.052346 94.906543 
L 370.522891 95.337861 
L 368.993419 98.010994 
L 367.463965 100.422315 
L 365.934492 101.712211 
L 364.40502 103.404455 
L 362.875566 104.484235 
L 361.346093 109.249543 
L 359.816639 109.540496 
L 358.287166 111.183323 
L 356.757694 112.409108 
L 355.22824 115.928551 
L 353.698767 117.438678 
L 352.169313 116.458926 
L 350.63984 121.493563 
L 349.110368 121.831052 
L 347.580914 123.946895 
L 346.051441 125.685585 
L 344.521969 124.214386 
L 342.992515 126.752309 
L 341.463042 125.771101 
L 339.933588 125.647039 
L 338.404115 129.011575 
L 336.874643 121.272866 
L 335.345189 126.240529 
L 333.815716 122.656257 
L 332.286244 124.365781 
L 330.756789 120.134354 
L 329.227317 122.754712 
L 327.697863 119.953004 
L 326.16839 118.950161 
L 324.638918 121.589768 
L 323.109464 123.264736 
L 321.579991 122.018417 
L 320.050519 123.64784 
L 318.521064 126.526032 
L 316.991592 130.056723 
L 315.462138 133.264355 
L 313.932665 135.349442 
L 312.403193 138.992281 
L 310.873738 142.947904 
L 309.344266 146.368932 
L 307.814794 151.259239 
L 306.285339 154.340122 
L 304.755867 159.72161 
L 303.226413 164.044811 
L 301.69694 169.137638 
L 300.167468 172.814651 
L 298.638013 176.0325 
L 297.108541 180.698545 
L 295.579069 186.779284 
L 294.049614 187.519426 
L 292.520142 199.506349 
L 290.990688 194.091984 
L 289.461215 195.372234 
L 287.931743 203.918884 
L 286.402288 202.107234 
L 284.872816 199.000379 
L 283.343343 203.074265 
L 281.813889 205.05887 
L 280.284417 202.986227 
L 278.754962 190.547576 
L 277.22549 200.173854 
L 275.696018 184.011844 
L 274.166563 185.535246 
L 272.637091 183.7406 
L 271.107618 179.044199 
L 269.578164 172.39316 
L 268.048692 163.759673 
L 266.519237 164.590541 
L 264.989765 156.820751 
L 263.460292 149.683363 
L 261.930838 142.374376 
L 260.401366 142.703409 
L 258.871893 133.450543 
L 257.342439 132.620948 
L 255.812967 127.853018 
L 254.283512 124.335944 
L 252.75404 122.04413 
L 251.224567 116.167401 
L 249.695113 114.837499 
L 248.165641 110.685254 
L 246.636168 104.534877 
L 245.106714 102.816314 
L 243.577241 102.713864 
L 242.047787 100.031157 
L 240.518315 97.35595 
L 238.988842 95.730269 
L 237.459388 92.827089 
L 235.929916 90.197445 
L 234.400443 90.743622 
L 232.870989 86.740758 
L 231.341516 87.468909 
L 229.812062 85.995106 
L 228.28259 84.265696 
L 226.753117 80.982729 
L 225.223663 79.626324 
L 223.694191 78.408058 
L 222.164718 76.638871 
L 220.635264 75.678214 
L 219.105791 74.265715 
L 217.576328 73.20242 
L 216.046865 71.993236 
L 214.51741 72.650356 
L 212.987938 72.536626 
L 211.458475 71.897888 
L 209.929011 69.845007 
L 208.399548 72.451545 
L 206.870075 71.490282 
L 205.340612 72.20457 
L 203.811149 71.412832 
L 202.281685 69.13193 
L 200.752213 71.079256 
L 199.222749 69.221827 
L 197.693286 68.45231 
L 196.163823 68.937824 
L 194.63435 69.5448 
L 193.104887 65.072328 
L 191.575424 66.072726 
L 190.04596 64.398639 
L 188.516488 62.533669 
L 186.987024 63.00776 
L 185.457561 63.932092 
L 183.928098 61.603059 
L 182.398625 61.890871 
L 180.869162 62.435107 
L 179.339698 60.886243 
L 177.810235 60.7807 
L 176.280763 61.936205 
L 174.751299 58.792259 
L 173.221836 58.74137 
L 171.692373 59.415905 
L 170.1629 55.709093 
L 168.633437 57.067557 
L 167.103973 52.952258 
L 165.57451 56.234981 
L 164.045038 56.081456 
L 162.515574 54.545233 
L 160.986111 54.331353 
L 159.456647 51.20633 
L 157.927175 51.869885 
L 156.397712 53.159312 
L 154.868248 51.991923 
L 153.338785 54.553977 
L 151.809312 52.737657 
L 150.279849 50.428909 
L 148.750386 53.967177 
L 147.220922 51.396309 
L 145.69145 52.04554 
L 144.161987 53.002664 
L 142.632523 53.871741 
L 141.10306 54.688173 
L 139.573596 54.281819 
L 138.044129 54.758927 
L 136.514665 55.713565 
L 134.985197 56.855999 
L 133.455734 57.298179 
L 131.926266 57.302725 
L 130.396803 58.3416 
L 128.867335 58.023635 
L 127.337871 57.849503 
L 125.808403 58.938319 
L 124.27894 59.475579 
L 122.749472 60.462955 
L 121.220009 59.235353 
L 119.690541 61.822577 
L 118.161078 60.852178 
L 116.63161 61.791644 
L 115.102146 62.712745 
L 113.572678 63.267833 
L 112.043215 63.125406 
L 110.513747 64.628678 
L 108.984284 65.40376 
L 107.454816 65.635295 
L 105.925353 66.056332 
L 104.395889 66.360289 
L 102.866421 68.012284 
L 101.336958 69.030048 
L 99.807492 67.931422 
L 98.278027 69.76053 
L 96.748561 71.204249 
L 95.219095 71.016432 
L 93.68963 70.929434 
L 92.160164 72.782732 
L 90.630698 74.082164 
L 89.101233 73.007191 
L 87.571767 73.790795 
L 86.042302 74.97014 
L 84.512837 75.834971 
L 82.983371 71.919998 
L 81.453906 75.370923 
L 79.92444 75.186288 
L 78.394974 78.131204 
L 76.865509 75.951715 
L 75.336044 76.828523 
L 73.806578 75.492133 
L 72.277113 75.894151 
L 70.747647 75.040358 
L 69.218182 76.43192 
z
" style="fill:#ff7f0e;fill-opacity:0.2;"/>
   </g>
   <g id="matplotlib.axis_1">
    <g id="xtick_1">
     <g id="line2d_1">
      <defs>
       <path d="M 0 0 
L 0 3.5 
" id="m4dbe573c06" style="stroke:#000000;stroke-width:0.8;"/>
      </defs>
      <g>
       <use style="stroke:#000000;stroke-width:0.8;" x="69.218182" xlink:href="#m4dbe573c06" y="252"/>
      </g>
     </g>
     <g id="text_1">
      <!-- 0.0 -->
      <g transform="translate(61.266619 266.598437)scale(0.1 -0.1)">
       <defs>
        <path d="M 31.78125 66.40625 
Q 24.171875 66.40625 20.328125 58.90625 
Q 16.5 51.421875 16.5 36.375 
Q 16.5 21.390625 20.328125 13.890625 
Q 24.171875 6.390625 31.78125 6.390625 
Q 39.453125 6.390625 43.28125 13.890625 
Q 47.125 21.390625 47.125 36.375 
Q 47.125 51.421875 43.28125 58.90625 
Q 39.453125 66.40625 31.78125 66.40625 
z
M 31.78125 74.21875 
Q 44.046875 74.21875 50.515625 64.515625 
Q 56.984375 54.828125 56.984375 36.375 
Q 56.984375 17.96875 50.515625 8.265625 
Q 44.046875 -1.421875 31.78125 -1.421875 
Q 19.53125 -1.421875 13.0625 8.265625 
Q 6.59375 17.96875 6.59375 36.375 
Q 6.59375 54.828125 13.0625 64.515625 
Q 19.53125 74.21875 31.78125 74.21875 
z
" id="DejaVuSans-48"/>
        <path d="M 10.6875 12.40625 
L 21 12.40625 
L 21 0 
L 10.6875 0 
z
" id="DejaVuSans-46"/>
       </defs>
       <use xlink:href="#DejaVuSans-48"/>
       <use x="63.623047" xlink:href="#DejaVuSans-46"/>
       <use x="95.410156" xlink:href="#DejaVuSans-48"/>
      </g>
     </g>
    </g>
    <g id="xtick_2">
     <g id="line2d_2">
      <g>
       <use style="stroke:#000000;stroke-width:0.8;" x="130.090909" xlink:href="#m4dbe573c06" y="252"/>
      </g>
     </g>
     <g id="text_2">
      <!-- 0.2 -->
      <g transform="translate(122.139347 266.598437)scale(0.1 -0.1)">
       <defs>
        <path d="M 19.1875 8.296875 
L 53.609375 8.296875 
L 53.609375 0 
L 7.328125 0 
L 7.328125 8.296875 
Q 12.9375 14.109375 22.625 23.890625 
Q 32.328125 33.6875 34.8125 36.53125 
Q 39.546875 41.84375 41.421875 45.53125 
Q 43.3125 49.21875 43.3125 52.78125 
Q 43.3125 58.59375 39.234375 62.25 
Q 35.15625 65.921875 28.609375 65.921875 
Q 23.96875 65.921875 18.8125 64.3125 
Q 13.671875 62.703125 7.8125 59.421875 
L 7.8125 69.390625 
Q 13.765625 71.78125 18.9375 73 
Q 24.125 74.21875 28.421875 74.21875 
Q 39.75 74.21875 46.484375 68.546875 
Q 53.21875 62.890625 53.21875 53.421875 
Q 53.21875 48.921875 51.53125 44.890625 
Q 49.859375 40.875 45.40625 35.40625 
Q 44.1875 33.984375 37.640625 27.21875 
Q 31.109375 20.453125 19.1875 8.296875 
z
" id="DejaVuSans-50"/>
       </defs>
       <use xlink:href="#DejaVuSans-48"/>
       <use x="63.623047" xlink:href="#DejaVuSans-46"/>
       <use x="95.410156" xlink:href="#DejaVuSans-50"/>
      </g>
     </g>
    </g>
    <g id="xtick_3">
     <g id="line2d_3">
      <g>
       <use style="stroke:#000000;stroke-width:0.8;" x="190.963636" xlink:href="#m4dbe573c06" y="252"/>
      </g>
     </g>
     <g id="text_3">
      <!-- 0.4 -->
      <g transform="translate(183.012074 266.598437)scale(0.1 -0.1)">
       <defs>
        <path d="M 37.796875 64.3125 
L 12.890625 25.390625 
L 37.796875 25.390625 
z
M 35.203125 72.90625 
L 47.609375 72.90625 
L 47.609375 25.390625 
L 58.015625 25.390625 
L 58.015625 17.1875 
L 47.609375 17.1875 
L 47.609375 0 
L 37.796875 0 
L 37.796875 17.1875 
L 4.890625 17.1875 
L 4.890625 26.703125 
z
" id="DejaVuSans-52"/>
       </defs>
       <use xlink:href="#DejaVuSans-48"/>
       <use x="63.623047" xlink:href="#DejaVuSans-46"/>
       <use x="95.410156" xlink:href="#DejaVuSans-52"/>
      </g>
     </g>
    </g>
    <g id="xtick_4">
     <g id="line2d_4">
      <g>
       <use style="stroke:#000000;stroke-width:0.8;" x="251.836364" xlink:href="#m4dbe573c06" y="252"/>
      </g>
     </g>
     <g id="text_4">
      <!-- 0.6 -->
      <g transform="translate(243.884801 266.598437)scale(0.1 -0.1)">
       <defs>
        <path d="M 33.015625 40.375 
Q 26.375 40.375 22.484375 35.828125 
Q 18.609375 31.296875 18.609375 23.390625 
Q 18.609375 15.53125 22.484375 10.953125 
Q 26.375 6.390625 33.015625 6.390625 
Q 39.65625 6.390625 43.53125 10.953125 
Q 47.40625 15.53125 47.40625 23.390625 
Q 47.40625 31.296875 43.53125 35.828125 
Q 39.65625 40.375 33.015625 40.375 
z
M 52.59375 71.296875 
L 52.59375 62.3125 
Q 48.875 64.0625 45.09375 64.984375 
Q 41.3125 65.921875 37.59375 65.921875 
Q 27.828125 65.921875 22.671875 59.328125 
Q 17.53125 52.734375 16.796875 39.40625 
Q 19.671875 43.65625 24.015625 45.921875 
Q 28.375 48.1875 33.59375 48.1875 
Q 44.578125 48.1875 50.953125 41.515625 
Q 57.328125 34.859375 57.328125 23.390625 
Q 57.328125 12.15625 50.6875 5.359375 
Q 44.046875 -1.421875 33.015625 -1.421875 
Q 20.359375 -1.421875 13.671875 8.265625 
Q 6.984375 17.96875 6.984375 36.375 
Q 6.984375 53.65625 15.1875 63.9375 
Q 23.390625 74.21875 37.203125 74.21875 
Q 40.921875 74.21875 44.703125 73.484375 
Q 48.484375 72.75 52.59375 71.296875 
z
" id="DejaVuSans-54"/>
       </defs>
       <use xlink:href="#DejaVuSans-48"/>
       <use x="63.623047" xlink:href="#DejaVuSans-46"/>
       <use x="95.410156" xlink:href="#DejaVuSans-54"/>
      </g>
     </g>
    </g>
    <g id="xtick_5">
     <g id="line2d_5">
      <g>
       <use style="stroke:#000000;stroke-width:0.8;" x="312.709091" xlink:href="#m4dbe573c06" y="252"/>
      </g>
     </g>
     <g id="text_5">
      <!-- 0.8 -->
      <g transform="translate(304.757528 266.598437)scale(0.1 -0.1)">
       <defs>
        <path d="M 31.78125 34.625 
Q 24.75 34.625 20.71875 30.859375 
Q 16.703125 27.09375 16.703125 20.515625 
Q 16.703125 13.921875 20.71875 10.15625 
Q 24.75 6.390625 31.78125 6.390625 
Q 38.8125 6.390625 42.859375 10.171875 
Q 46.921875 13.96875 46.921875 20.515625 
Q 46.921875 27.09375 42.890625 30.859375 
Q 38.875 34.625 31.78125 34.625 
z
M 21.921875 38.8125 
Q 15.578125 40.375 12.03125 44.71875 
Q 8.5 49.078125 8.5 55.328125 
Q 8.5 64.0625 14.71875 69.140625 
Q 20.953125 74.21875 31.78125 74.21875 
Q 42.671875 74.21875 48.875 69.140625 
Q 55.078125 64.0625 55.078125 55.328125 
Q 55.078125 49.078125 51.53125 44.71875 
Q 48 40.375 41.703125 38.8125 
Q 48.828125 37.15625 52.796875 32.3125 
Q 56.78125 27.484375 56.78125 20.515625 
Q 56.78125 9.90625 50.3125 4.234375 
Q 43.84375 -1.421875 31.78125 -1.421875 
Q 19.734375 -1.421875 13.25 4.234375 
Q 6.78125 9.90625 6.78125 20.515625 
Q 6.78125 27.484375 10.78125 32.3125 
Q 14.796875 37.15625 21.921875 38.8125 
z
M 18.3125 54.390625 
Q 18.3125 48.734375 21.84375 45.5625 
Q 25.390625 42.390625 31.78125 42.390625 
Q 38.140625 42.390625 41.71875 45.5625 
Q 45.3125 48.734375 45.3125 54.390625 
Q 45.3125 60.0625 41.71875 63.234375 
Q 38.140625 66.40625 31.78125 66.40625 
Q 25.390625 66.40625 21.84375 63.234375 
Q 18.3125 60.0625 18.3125 54.390625 
z
" id="DejaVuSans-56"/>
       </defs>
       <use xlink:href="#DejaVuSans-48"/>
       <use x="63.623047" xlink:href="#DejaVuSans-46"/>
       <use x="95.410156" xlink:href="#DejaVuSans-56"/>
      </g>
     </g>
    </g>
    <g id="xtick_6">
     <g id="line2d_6">
      <g>
       <use style="stroke:#000000;stroke-width:0.8;" x="373.581818" xlink:href="#m4dbe573c06" y="252"/>
      </g>
     </g>
     <g id="text_6">
      <!-- 1.0 -->
      <g transform="translate(365.630256 266.598437)scale(0.1 -0.1)">
       <defs>
        <path d="M 12.40625 8.296875 
L 28.515625 8.296875 
L 28.515625 63.921875 
L 10.984375 60.40625 
L 10.984375 69.390625 
L 28.421875 72.90625 
L 38.28125 72.90625 
L 38.28125 8.296875 
L 54.390625 8.296875 
L 54.390625 0 
L 12.40625 0 
z
" id="DejaVuSans-49"/>
       </defs>
       <use xlink:href="#DejaVuSans-49"/>
       <use x="63.623047" xlink:href="#DejaVuSans-46"/>
       <use x="95.410156" xlink:href="#DejaVuSans-48"/>
      </g>
     </g>
    </g>
    <g id="text_7">
     <!-- time t -->
     <g transform="translate(206.554688 280.276563)scale(0.1 -0.1)">
      <defs>
       <path d="M 18.3125 70.21875 
L 18.3125 54.6875 
L 36.8125 54.6875 
L 36.8125 47.703125 
L 18.3125 47.703125 
L 18.3125 18.015625 
Q 18.3125 11.328125 20.140625 9.421875 
Q 21.96875 7.515625 27.59375 7.515625 
L 36.8125 7.515625 
L 36.8125 0 
L 27.59375 0 
Q 17.1875 0 13.234375 3.875 
Q 9.28125 7.765625 9.28125 18.015625 
L 9.28125 47.703125 
L 2.6875 47.703125 
L 2.6875 54.6875 
L 9.28125 54.6875 
L 9.28125 70.21875 
z
" id="DejaVuSans-116"/>
       <path d="M 9.421875 54.6875 
L 18.40625 54.6875 
L 18.40625 0 
L 9.421875 0 
z
M 9.421875 75.984375 
L 18.40625 75.984375 
L 18.40625 64.59375 
L 9.421875 64.59375 
z
" id="DejaVuSans-105"/>
       <path d="M 52 44.1875 
Q 55.375 50.25 60.0625 53.125 
Q 64.75 56 71.09375 56 
Q 79.640625 56 84.28125 50.015625 
Q 88.921875 44.046875 88.921875 33.015625 
L 88.921875 0 
L 79.890625 0 
L 79.890625 32.71875 
Q 79.890625 40.578125 77.09375 44.375 
Q 74.3125 48.1875 68.609375 48.1875 
Q 61.625 48.1875 57.5625 43.546875 
Q 53.515625 38.921875 53.515625 30.90625 
L 53.515625 0 
L 44.484375 0 
L 44.484375 32.71875 
Q 44.484375 40.625 41.703125 44.40625 
Q 38.921875 48.1875 33.109375 48.1875 
Q 26.21875 48.1875 22.15625 43.53125 
Q 18.109375 38.875 18.109375 30.90625 
L 18.109375 0 
L 9.078125 0 
L 9.078125 54.6875 
L 18.109375 54.6875 
L 18.109375 46.1875 
Q 21.1875 51.21875 25.484375 53.609375 
Q 29.78125 56 35.6875 56 
Q 41.65625 56 45.828125 52.96875 
Q 50 49.953125 52 44.1875 
z
" id="DejaVuSans-109"/>
       <path d="M 56.203125 29.59375 
L 56.203125 25.203125 
L 14.890625 25.203125 
Q 15.484375 15.921875 20.484375 11.0625 
Q 25.484375 6.203125 34.421875 6.203125 
Q 39.59375 6.203125 44.453125 7.46875 
Q 49.3125 8.734375 54.109375 11.28125 
L 54.109375 2.78125 
Q 49.265625 0.734375 44.1875 -0.34375 
Q 39.109375 -1.421875 33.890625 -1.421875 
Q 20.796875 -1.421875 13.15625 6.1875 
Q 5.515625 13.8125 5.515625 26.8125 
Q 5.515625 40.234375 12.765625 48.109375 
Q 20.015625 56 32.328125 56 
Q 43.359375 56 49.78125 48.890625 
Q 56.203125 41.796875 56.203125 29.59375 
z
M 47.21875 32.234375 
Q 47.125 39.59375 43.09375 43.984375 
Q 39.0625 48.390625 32.421875 48.390625 
Q 24.90625 48.390625 20.390625 44.140625 
Q 15.875 39.890625 15.1875 32.171875 
z
" id="DejaVuSans-101"/>
       <path id="DejaVuSans-32"/>
      </defs>
      <use xlink:href="#DejaVuSans-116"/>
      <use x="39.208984" xlink:href="#DejaVuSans-105"/>
      <use x="66.992188" xlink:href="#DejaVuSans-109"/>
      <use x="164.404297" xlink:href="#DejaVuSans-101"/>
      <use x="225.927734" xlink:href="#DejaVuSans-32"/>
      <use x="257.714844" xlink:href="#DejaVuSans-116"/>
     </g>
    </g>
   </g>
   <g id="matplotlib.axis_2">
    <g id="ytick_1">
     <g id="line2d_7">
      <defs>
       <path d="M 0 0 
L -3.5 0 
" id="m412a96f8c5" style="stroke:#000000;stroke-width:0.8;"/>
      </defs>
      <g>
       <use style="stroke:#000000;stroke-width:0.8;" x="54" xlink:href="#m412a96f8c5" y="223.826255"/>
      </g>
     </g>
     <g id="text_8">
      <!-- −0.5 -->
      <g transform="translate(22.717187 227.625474)scale(0.1 -0.1)">
       <defs>
        <path d="M 10.59375 35.5 
L 73.1875 35.5 
L 73.1875 27.203125 
L 10.59375 27.203125 
z
" id="DejaVuSans-8722"/>
        <path d="M 10.796875 72.90625 
L 49.515625 72.90625 
L 49.515625 64.59375 
L 19.828125 64.59375 
L 19.828125 46.734375 
Q 21.96875 47.46875 24.109375 47.828125 
Q 26.265625 48.1875 28.421875 48.1875 
Q 40.625 48.1875 47.75 41.5 
Q 54.890625 34.8125 54.890625 23.390625 
Q 54.890625 11.625 47.5625 5.09375 
Q 40.234375 -1.421875 26.90625 -1.421875 
Q 22.3125 -1.421875 17.546875 -0.640625 
Q 12.796875 0.140625 7.71875 1.703125 
L 7.71875 11.625 
Q 12.109375 9.234375 16.796875 8.0625 
Q 21.484375 6.890625 26.703125 6.890625 
Q 35.15625 6.890625 40.078125 11.328125 
Q 45.015625 15.765625 45.015625 23.390625 
Q 45.015625 31 40.078125 35.4375 
Q 35.15625 39.890625 26.703125 39.890625 
Q 22.75 39.890625 18.8125 39.015625 
Q 14.890625 38.140625 10.796875 36.28125 
z
" id="DejaVuSans-53"/>
       </defs>
       <use xlink:href="#DejaVuSans-8722"/>
       <use x="83.789062" xlink:href="#DejaVuSans-48"/>
       <use x="147.412109" xlink:href="#DejaVuSans-46"/>
       <use x="179.199219" xlink:href="#DejaVuSans-53"/>
      </g>
     </g>
    </g>
    <g id="ytick_2">
     <g id="line2d_8">
      <g>
       <use style="stroke:#000000;stroke-width:0.8;" x="54" xlink:href="#m412a96f8c5" y="184.285667"/>
      </g>
     </g>
     <g id="text_9">
      <!-- −0.4 -->
      <g transform="translate(22.717187 188.084886)scale(0.1 -0.1)">
       <use xlink:href="#DejaVuSans-8722"/>
       <use x="83.789062" xlink:href="#DejaVuSans-48"/>
       <use x="147.412109" xlink:href="#DejaVuSans-46"/>
       <use x="179.199219" xlink:href="#DejaVuSans-52"/>
      </g>
     </g>
    </g>
    <g id="ytick_3">
     <g id="line2d_9">
      <g>
       <use style="stroke:#000000;stroke-width:0.8;" x="54" xlink:href="#m412a96f8c5" y="144.745079"/>
      </g>
     </g>
     <g id="text_10">
      <!-- −0.3 -->
      <g transform="translate(22.717187 148.544298)scale(0.1 -0.1)">
       <defs>
        <path d="M 40.578125 39.3125 
Q 47.65625 37.796875 51.625 33 
Q 55.609375 28.21875 55.609375 21.1875 
Q 55.609375 10.40625 48.1875 4.484375 
Q 40.765625 -1.421875 27.09375 -1.421875 
Q 22.515625 -1.421875 17.65625 -0.515625 
Q 12.796875 0.390625 7.625 2.203125 
L 7.625 11.71875 
Q 11.71875 9.328125 16.59375 8.109375 
Q 21.484375 6.890625 26.8125 6.890625 
Q 36.078125 6.890625 40.9375 10.546875 
Q 45.796875 14.203125 45.796875 21.1875 
Q 45.796875 27.640625 41.28125 31.265625 
Q 36.765625 34.90625 28.71875 34.90625 
L 20.21875 34.90625 
L 20.21875 43.015625 
L 29.109375 43.015625 
Q 36.375 43.015625 40.234375 45.921875 
Q 44.09375 48.828125 44.09375 54.296875 
Q 44.09375 59.90625 40.109375 62.90625 
Q 36.140625 65.921875 28.71875 65.921875 
Q 24.65625 65.921875 20.015625 65.03125 
Q 15.375 64.15625 9.8125 62.3125 
L 9.8125 71.09375 
Q 15.4375 72.65625 20.34375 73.4375 
Q 25.25 74.21875 29.59375 74.21875 
Q 40.828125 74.21875 47.359375 69.109375 
Q 53.90625 64.015625 53.90625 55.328125 
Q 53.90625 49.265625 50.4375 45.09375 
Q 46.96875 40.921875 40.578125 39.3125 
z
" id="DejaVuSans-51"/>
       </defs>
       <use xlink:href="#DejaVuSans-8722"/>
       <use x="83.789062" xlink:href="#DejaVuSans-48"/>
       <use x="147.412109" xlink:href="#DejaVuSans-46"/>
       <use x="179.199219" xlink:href="#DejaVuSans-51"/>
      </g>
     </g>
    </g>
    <g id="ytick_4">
     <g id="line2d_10">
      <g>
       <use style="stroke:#000000;stroke-width:0.8;" x="54" xlink:href="#m412a96f8c5" y="105.204491"/>
      </g>
     </g>
     <g id="text_11">
      <!-- −0.2 -->
      <g transform="translate(22.717187 109.00371)scale(0.1 -0.1)">
       <use xlink:href="#DejaVuSans-8722"/>
       <use x="83.789062" xlink:href="#DejaVuSans-48"/>
       <use x="147.412109" xlink:href="#DejaVuSans-46"/>
       <use x="179.199219" xlink:href="#DejaVuSans-50"/>
      </g>
     </g>
    </g>
    <g id="ytick_5">
     <g id="line2d_11">
      <g>
       <use style="stroke:#000000;stroke-width:0.8;" x="54" xlink:href="#m412a96f8c5" y="65.663903"/>
      </g>
     </g>
     <g id="text_12">
      <!-- −0.1 -->
      <g transform="translate(22.717187 69.463122)scale(0.1 -0.1)">
       <use xlink:href="#DejaVuSans-8722"/>
       <use x="83.789062" xlink:href="#DejaVuSans-48"/>
       <use x="147.412109" xlink:href="#DejaVuSans-46"/>
       <use x="179.199219" xlink:href="#DejaVuSans-49"/>
      </g>
     </g>
    </g>
    <g id="text_13">
     <!-- Entropy, bit -->
     <g transform="translate(16.6375 172.405781)rotate(-90)scale(0.1 -0.1)">
      <defs>
       <path d="M 9.8125 72.90625 
L 55.90625 72.90625 
L 55.90625 64.59375 
L 19.671875 64.59375 
L 19.671875 43.015625 
L 54.390625 43.015625 
L 54.390625 34.71875 
L 19.671875 34.71875 
L 19.671875 8.296875 
L 56.78125 8.296875 
L 56.78125 0 
L 9.8125 0 
z
" id="DejaVuSans-69"/>
       <path d="M 54.890625 33.015625 
L 54.890625 0 
L 45.90625 0 
L 45.90625 32.71875 
Q 45.90625 40.484375 42.875 44.328125 
Q 39.84375 48.1875 33.796875 48.1875 
Q 26.515625 48.1875 22.3125 43.546875 
Q 18.109375 38.921875 18.109375 30.90625 
L 18.109375 0 
L 9.078125 0 
L 9.078125 54.6875 
L 18.109375 54.6875 
L 18.109375 46.1875 
Q 21.34375 51.125 25.703125 53.5625 
Q 30.078125 56 35.796875 56 
Q 45.21875 56 50.046875 50.171875 
Q 54.890625 44.34375 54.890625 33.015625 
z
" id="DejaVuSans-110"/>
       <path d="M 41.109375 46.296875 
Q 39.59375 47.171875 37.8125 47.578125 
Q 36.03125 48 33.890625 48 
Q 26.265625 48 22.1875 43.046875 
Q 18.109375 38.09375 18.109375 28.8125 
L 18.109375 0 
L 9.078125 0 
L 9.078125 54.6875 
L 18.109375 54.6875 
L 18.109375 46.1875 
Q 20.953125 51.171875 25.484375 53.578125 
Q 30.03125 56 36.53125 56 
Q 37.453125 56 38.578125 55.875 
Q 39.703125 55.765625 41.0625 55.515625 
z
" id="DejaVuSans-114"/>
       <path d="M 30.609375 48.390625 
Q 23.390625 48.390625 19.1875 42.75 
Q 14.984375 37.109375 14.984375 27.296875 
Q 14.984375 17.484375 19.15625 11.84375 
Q 23.34375 6.203125 30.609375 6.203125 
Q 37.796875 6.203125 41.984375 11.859375 
Q 46.1875 17.53125 46.1875 27.296875 
Q 46.1875 37.015625 41.984375 42.703125 
Q 37.796875 48.390625 30.609375 48.390625 
z
M 30.609375 56 
Q 42.328125 56 49.015625 48.375 
Q 55.71875 40.765625 55.71875 27.296875 
Q 55.71875 13.875 49.015625 6.21875 
Q 42.328125 -1.421875 30.609375 -1.421875 
Q 18.84375 -1.421875 12.171875 6.21875 
Q 5.515625 13.875 5.515625 27.296875 
Q 5.515625 40.765625 12.171875 48.375 
Q 18.84375 56 30.609375 56 
z
" id="DejaVuSans-111"/>
       <path d="M 18.109375 8.203125 
L 18.109375 -20.796875 
L 9.078125 -20.796875 
L 9.078125 54.6875 
L 18.109375 54.6875 
L 18.109375 46.390625 
Q 20.953125 51.265625 25.265625 53.625 
Q 29.59375 56 35.59375 56 
Q 45.5625 56 51.78125 48.09375 
Q 58.015625 40.1875 58.015625 27.296875 
Q 58.015625 14.40625 51.78125 6.484375 
Q 45.5625 -1.421875 35.59375 -1.421875 
Q 29.59375 -1.421875 25.265625 0.953125 
Q 20.953125 3.328125 18.109375 8.203125 
z
M 48.6875 27.296875 
Q 48.6875 37.203125 44.609375 42.84375 
Q 40.53125 48.484375 33.40625 48.484375 
Q 26.265625 48.484375 22.1875 42.84375 
Q 18.109375 37.203125 18.109375 27.296875 
Q 18.109375 17.390625 22.1875 11.75 
Q 26.265625 6.109375 33.40625 6.109375 
Q 40.53125 6.109375 44.609375 11.75 
Q 48.6875 17.390625 48.6875 27.296875 
z
" id="DejaVuSans-112"/>
       <path d="M 32.171875 -5.078125 
Q 28.375 -14.84375 24.75 -17.8125 
Q 21.140625 -20.796875 15.09375 -20.796875 
L 7.90625 -20.796875 
L 7.90625 -13.28125 
L 13.1875 -13.28125 
Q 16.890625 -13.28125 18.9375 -11.515625 
Q 21 -9.765625 23.484375 -3.21875 
L 25.09375 0.875 
L 2.984375 54.6875 
L 12.5 54.6875 
L 29.59375 11.921875 
L 46.6875 54.6875 
L 56.203125 54.6875 
z
" id="DejaVuSans-121"/>
       <path d="M 11.71875 12.40625 
L 22.015625 12.40625 
L 22.015625 4 
L 14.015625 -11.625 
L 7.71875 -11.625 
L 11.71875 4 
z
" id="DejaVuSans-44"/>
       <path d="M 48.6875 27.296875 
Q 48.6875 37.203125 44.609375 42.84375 
Q 40.53125 48.484375 33.40625 48.484375 
Q 26.265625 48.484375 22.1875 42.84375 
Q 18.109375 37.203125 18.109375 27.296875 
Q 18.109375 17.390625 22.1875 11.75 
Q 26.265625 6.109375 33.40625 6.109375 
Q 40.53125 6.109375 44.609375 11.75 
Q 48.6875 17.390625 48.6875 27.296875 
z
M 18.109375 46.390625 
Q 20.953125 51.265625 25.265625 53.625 
Q 29.59375 56 35.59375 56 
Q 45.5625 56 51.78125 48.09375 
Q 58.015625 40.1875 58.015625 27.296875 
Q 58.015625 14.40625 51.78125 6.484375 
Q 45.5625 -1.421875 35.59375 -1.421875 
Q 29.59375 -1.421875 25.265625 0.953125 
Q 20.953125 3.328125 18.109375 8.203125 
L 18.109375 0 
L 9.078125 0 
L 9.078125 75.984375 
L 18.109375 75.984375 
z
" id="DejaVuSans-98"/>
      </defs>
      <use xlink:href="#DejaVuSans-69"/>
      <use x="63.183594" xlink:href="#DejaVuSans-110"/>
      <use x="126.5625" xlink:href="#DejaVuSans-116"/>
      <use x="165.771484" xlink:href="#DejaVuSans-114"/>
      <use x="204.634766" xlink:href="#DejaVuSans-111"/>
      <use x="265.816406" xlink:href="#DejaVuSans-112"/>
      <use x="329.292969" xlink:href="#DejaVuSans-121"/>
      <use x="388.472656" xlink:href="#DejaVuSans-44"/>
      <use x="420.259766" xlink:href="#DejaVuSans-32"/>
      <use x="452.046875" xlink:href="#DejaVuSans-98"/>
      <use x="515.523438" xlink:href="#DejaVuSans-105"/>
      <use x="543.306641" xlink:href="#DejaVuSans-116"/>
     </g>
    </g>
   </g>
   <g id="line2d_12">
    <path clip-path="url(#p4cf340e79a)" d="M 69.218182 71.775237 
L 70.747647 72.08227 
L 73.806578 71.291565 
L 75.336044 71.336224 
L 76.865509 71.548513 
L 78.394974 72.154444 
L 81.453906 72.075099 
L 82.983371 71.184048 
L 84.512837 70.591925 
L 86.042302 71.250195 
L 87.571767 69.284324 
L 89.101233 69.856585 
L 92.160164 67.566568 
L 93.68963 67.602391 
L 95.219095 67.464091 
L 96.748561 66.357033 
L 98.278027 66.318405 
L 101.336958 64.147731 
L 102.866421 64.305419 
L 104.395889 63.312365 
L 105.925353 62.147663 
L 107.454816 61.391011 
L 108.984284 60.153908 
L 110.513747 59.706112 
L 113.572678 59.373794 
L 115.102146 59.437493 
L 116.63161 58.929189 
L 118.161078 58.014514 
L 121.220009 58.133023 
L 122.749472 57.875967 
L 124.27894 56.930388 
L 125.808403 58.88309 
L 127.337871 57.788591 
L 128.867335 58.448729 
L 131.926266 56.9182 
L 133.455734 56.67063 
L 134.985197 56.203877 
L 136.514665 56.640893 
L 138.044129 56.726366 
L 139.573596 56.579961 
L 141.10306 55.812409 
L 144.161987 55.277374 
L 145.69145 54.610861 
L 147.220922 55.058179 
L 148.750386 54.138469 
L 150.279849 54.022535 
L 151.809312 54.101297 
L 153.338785 53.246932 
L 154.868248 52.051394 
L 157.927175 52.564055 
L 159.456647 52.978993 
L 160.986111 52.205579 
L 162.515574 52.359316 
L 164.045038 53.095749 
L 165.57451 52.458281 
L 167.103973 53.341808 
L 168.633437 53.746701 
L 170.1629 53.347291 
L 171.692373 54.602329 
L 173.221836 55.620501 
L 174.751299 55.816867 
L 176.280763 56.919724 
L 177.810235 58.793308 
L 179.339698 59.955748 
L 180.869162 60.797197 
L 182.398625 62.104404 
L 185.457561 65.338078 
L 186.987024 66.118383 
L 190.04596 70.861723 
L 191.575424 72.142701 
L 193.104887 73.599485 
L 194.63435 73.862442 
L 196.163823 75.441241 
L 197.693286 76.709563 
L 200.752213 78.423554 
L 202.281685 77.923069 
L 203.811149 78.563848 
L 205.340612 78.212031 
L 208.399548 78.814217 
L 209.929011 78.782289 
L 212.987938 75.826121 
L 214.51741 76.850529 
L 216.046865 74.415207 
L 217.576328 73.85407 
L 219.105791 71.815082 
L 220.635264 71.350353 
L 222.164718 69.875984 
L 225.223663 68.696063 
L 226.753117 66.862615 
L 228.28259 65.528823 
L 229.812062 66.249006 
L 231.341516 65.155901 
L 232.870989 64.33396 
L 234.400443 64.392182 
L 235.929916 64.666684 
L 237.459388 65.394786 
L 240.518315 67.770956 
L 242.047787 69.352615 
L 243.577241 71.269137 
L 245.106714 72.372377 
L 248.165641 77.615 
L 249.695113 82.876526 
L 251.224567 85.317526 
L 252.75404 90.069111 
L 255.812967 101.307024 
L 257.342439 108.097644 
L 260.401366 123.070376 
L 261.930838 130.006146 
L 263.460292 137.597419 
L 264.989765 146.450372 
L 266.519237 152.364379 
L 268.048692 162.161219 
L 269.578164 166.461324 
L 271.107618 174.666344 
L 272.637091 179.091712 
L 274.166563 184.774906 
L 277.22549 194.529995 
L 278.754962 198.473185 
L 280.284417 198.839715 
L 281.813889 201.85984 
L 283.343343 202.491027 
L 284.872816 201.167541 
L 286.402288 201.212391 
L 289.461215 196.490018 
L 290.990688 190.96202 
L 292.520142 189.806161 
L 294.049614 187.30022 
L 295.579069 182.874545 
L 300.167468 171.980343 
L 301.69694 166.717414 
L 303.226413 163.811665 
L 304.755867 158.536716 
L 306.285339 154.368321 
L 307.814794 152.076649 
L 309.344266 149.299652 
L 310.873738 145.351536 
L 315.462138 137.278579 
L 316.991592 133.769277 
L 318.521064 133.020933 
L 320.050519 129.644436 
L 324.638918 122.089175 
L 326.16839 119.954683 
L 327.697863 120.440921 
L 330.756789 117.406243 
L 332.286244 116.56708 
L 333.815716 113.436291 
L 335.345189 111.875033 
L 336.874643 110.599691 
L 338.404115 109.522974 
L 339.933588 109.427818 
L 341.463042 107.473439 
L 342.992515 107.553382 
L 344.521969 104.561963 
L 346.051441 104.529368 
L 347.580914 103.171043 
L 349.110368 100.457662 
L 350.63984 100.107629 
L 352.169313 98.427541 
L 353.698767 98.308917 
L 355.22824 94.584073 
L 356.757694 94.029753 
L 358.287166 92.18585 
L 361.346093 89.116456 
L 362.875566 87.006894 
L 364.40502 84.317187 
L 365.934492 84.588478 
L 367.463965 81.506776 
L 368.993419 80.608887 
L 370.522891 78.14538 
L 372.052346 76.87012 
L 373.581818 75.785166 
L 373.581818 75.785166 
" style="fill:none;stroke:#1f77b4;stroke-linecap:square;stroke-width:1.5;"/>
   </g>
   <g id="line2d_13">
    <path clip-path="url(#p4cf340e79a)" d="M 69.218182 84.640004 
L 70.747647 84.584542 
L 72.277113 84.06383 
L 73.806578 84.839867 
L 75.336044 84.792283 
L 76.865509 83.570817 
L 78.394974 86.368984 
L 79.92444 82.541713 
L 81.453906 82.790285 
L 82.983371 80.399615 
L 84.512837 82.913687 
L 86.042302 81.296932 
L 89.101233 79.664298 
L 90.630698 80.331609 
L 92.160164 78.528461 
L 93.68963 78.081971 
L 95.219095 76.610035 
L 96.748561 78.112002 
L 99.807492 73.883338 
L 101.336958 74.864216 
L 102.866421 73.667959 
L 104.395889 72.08239 
L 105.925353 71.812215 
L 107.454816 70.618987 
L 110.513747 70.40972 
L 112.043215 68.097697 
L 113.572678 68.058061 
L 115.102146 66.819821 
L 116.63161 65.923876 
L 118.161078 65.424016 
L 119.690541 65.968994 
L 121.220009 63.954028 
L 122.749472 65.085924 
L 124.27894 64.107715 
L 125.808403 63.546322 
L 127.337871 63.455464 
L 128.867335 63.124286 
L 130.396803 61.595417 
L 133.455734 61.481241 
L 134.985197 61.801731 
L 136.514665 61.994971 
L 138.044129 61.142204 
L 139.573596 61.788024 
L 141.10306 61.019408 
L 142.632523 59.85784 
L 144.161987 59.902785 
L 147.220922 60.47015 
L 148.750386 58.932613 
L 150.279849 58.907949 
L 151.809312 59.245905 
L 154.868248 59.338298 
L 156.397712 57.849503 
L 157.927175 58.003614 
L 159.456647 60.006401 
L 160.986111 58.370389 
L 162.515574 59.134502 
L 164.045038 60.680818 
L 165.57451 60.096691 
L 167.103973 60.1869 
L 168.633437 60.698173 
L 170.1629 62.52314 
L 171.692373 61.939651 
L 173.221836 64.160811 
L 174.751299 62.940368 
L 176.280763 66.890658 
L 177.810235 67.386429 
L 179.339698 66.951183 
L 180.869162 67.730489 
L 182.398625 69.607494 
L 183.928098 69.554622 
L 185.457561 71.644093 
L 186.987024 71.427064 
L 188.516488 69.676528 
L 190.04596 72.691209 
L 191.575424 72.968139 
L 193.104887 74.267877 
L 194.63435 75.954043 
L 196.163823 78.074223 
L 197.693286 74.568935 
L 199.222749 76.635742 
L 200.752213 75.270641 
L 202.281685 75.227432 
L 203.811149 75.357621 
L 205.340612 76.922589 
L 206.870075 75.586205 
L 208.399548 76.052811 
L 209.929011 75.59958 
L 211.458475 76.016457 
L 212.987938 77.167018 
L 214.51741 78.105851 
L 216.046865 77.840386 
L 217.576328 77.898694 
L 220.635264 78.820127 
L 222.164718 81.099255 
L 223.694191 82.423136 
L 225.223663 83.418779 
L 226.753117 85.002462 
L 228.28259 88.376072 
L 229.812062 87.698874 
L 231.341516 91.141291 
L 232.870989 91.802911 
L 234.400443 95.531667 
L 235.929916 95.962514 
L 237.459388 97.845287 
L 238.988842 100.683155 
L 242.047787 105.07412 
L 243.577241 108.198103 
L 245.106714 109.640879 
L 246.636168 112.989801 
L 248.165641 118.396583 
L 249.695113 122.363176 
L 251.224567 126.901035 
L 252.75404 130.192593 
L 254.283512 134.59325 
L 255.812967 136.443152 
L 257.342439 142.366516 
L 258.871893 145.512753 
L 260.401366 154.08032 
L 261.930838 157.72303 
L 263.460292 165.241442 
L 264.989765 166.168762 
L 266.519237 178.60799 
L 268.048692 182.915389 
L 269.578164 188.045689 
L 271.107618 194.689421 
L 272.637091 199.200872 
L 274.166563 201.988333 
L 275.696018 203.942064 
L 277.22549 214.063035 
L 278.754962 216.331976 
L 280.284417 215.359736 
L 281.813889 218.494389 
L 283.343343 220.955917 
L 284.872816 212.647999 
L 286.402288 215.325892 
L 287.931743 215.083518 
L 290.990688 209.068781 
L 292.520142 209.452869 
L 295.579069 197.607544 
L 297.108541 193.835116 
L 298.638013 191.656959 
L 300.167468 184.757136 
L 301.69694 180.527912 
L 304.755867 169.922665 
L 306.285339 166.324888 
L 309.344266 155.842902 
L 310.873738 153.555366 
L 312.403193 149.638525 
L 313.932665 144.895047 
L 315.462138 144.605042 
L 316.991592 139.580044 
L 318.521064 138.564274 
L 320.050519 135.954528 
L 321.579991 133.868981 
L 323.109464 133.753109 
L 324.638918 133.463305 
L 326.16839 131.536065 
L 327.697863 130.767877 
L 329.227317 132.492538 
L 330.756789 133.672447 
L 332.286244 135.129128 
L 333.815716 132.196441 
L 335.345189 136.166793 
L 336.874643 134.503845 
L 338.404115 138.579087 
L 339.933588 134.898975 
L 341.463042 134.646797 
L 342.992515 133.904321 
L 344.521969 134.498731 
L 346.051441 133.70371 
L 347.580914 132.294378 
L 349.110368 130.310021 
L 350.63984 129.976663 
L 352.169313 126.819431 
L 353.698767 125.694329 
L 355.22824 124.419681 
L 356.757694 122.700488 
L 358.287166 120.737648 
L 359.816639 117.672408 
L 361.346093 118.116566 
L 362.875566 114.287109 
L 364.40502 111.988048 
L 365.934492 110.993978 
L 367.463965 109.59561 
L 368.993419 106.942051 
L 370.522891 106.31051 
L 372.052346 104.963267 
L 373.581818 101.374228 
L 373.581818 101.374228 
" style="fill:none;stroke:#ff7f0e;stroke-linecap:square;stroke-width:1.5;"/>
   </g>
   <g id="patch_3">
    <path d="M 54 252 
L 54 34.56 
" style="fill:none;stroke:#000000;stroke-linecap:square;stroke-linejoin:miter;stroke-width:0.8;"/>
   </g>
   <g id="patch_4">
    <path d="M 388.8 252 
L 388.8 34.56 
" style="fill:none;stroke:#000000;stroke-linecap:square;stroke-linejoin:miter;stroke-width:0.8;"/>
   </g>
   <g id="patch_5">
    <path d="M 54 252 
L 388.8 252 
" style="fill:none;stroke:#000000;stroke-linecap:square;stroke-linejoin:miter;stroke-width:0.8;"/>
   </g>
   <g id="patch_6">
    <path d="M 54 34.56 
L 388.8 34.56 
" style="fill:none;stroke:#000000;stroke-linecap:square;stroke-linejoin:miter;stroke-width:0.8;"/>
   </g>
  </g>
 </g>
 <defs>
  <clipPath id="p4cf340e79a">
   <rect height="217.44" width="334.8" x="54" y="34.56"/>
  </clipPath>
 </defs>
</svg>
